<?xml version="1.0" standalone="no"?><!DOCTYPE svg PUBLIC "-//W3C//DTD SVG 1.1//EN"
	"http://www.w3.org/Graphics/SVG/1.1/DTD/svg11.dtd">
<svg class="icon" height="28" p-id="2424" t="1583297319570" version="1.1" viewBox="0 0 1024 1024"
		width="28" xmlns="http://www.w3.org/2000/svg">
	<defs>
		<style type="text/css"></style>
	</defs>
	<path
		d="M512 90.125c233.00683594 0 421.875 188.86816406 421.875 421.875s-188.86816406 421.875-421.875 421.875S90.125 745.00683594 90.125 512 278.99316406 90.125 512 90.125z m156.515625 619.62890625l9.22851563-89.17382813c-26.28808594 7.85742188-83.16210938 13.2890625-121.7109375 13.28906251-110.79492188 0-169.51464844-38.97070313-160.94531251-120.55078126 9.54492188-91.20410156 93.234375-120.04980469 191.68945313-120.04980468 45.140625 0 100.88085938 7.25097656 124.6640625 15.10839843L722.9375 314.82617187C687.13085938 306.20410156 649.00390625 301.0625 584.16699219 301.0625c-167.43164063 0-320.28222656 78.17871094-334.86328125 217.10742188C237.06933594 634.73925781 340.27050781 722.9375 531.45898438 722.9375c66.47167969 0 114.09082031-5.29980469 137.05664062-13.18359375z"
		fill="#CE000D" p-id="2425"></path>
</svg>