<svg viewBox="0 0 519 518" xmlns="http://www.w3.org/2000/svg">
	<g fill="none" fill-rule="evenodd">
		<path d="M-7.273-8.273h534v534h-534z" />
		<g fill-rule="nonzero">
			<g fill="#073042">
				<path d="M97.247 228.084v20.785c5.574 0 10.803 2.16 14.726 6.082 8.12 8.12 8.121 21.332 0 29.452-2.66 2.661-14.1 11.422-28.487 19.614-19.269 10.973-29.896 13.173-34.182 13.564.44-4.753 2.952-14.567 11.484-30.337 8.87-16.394 19.001-29.564 21.732-32.294 3.92-3.921 9.15-6.08 14.726-6.08v-20.786h-.002c-10.654 0-21.31 4.056-29.423 12.168-10.766 10.765-53.873 73.633-34.329 93.175 3.533 3.533 8.478 5.018 14.279 5.018 26.289 0 70.083-30.526 78.902-39.345 16.228-16.226 16.226-42.62-.001-58.846-8.114-8.114-18.769-12.17-29.425-12.17zM278.218 391.79c-8.114-8.114-18.768-12.17-29.424-12.17v20.785c5.573 0 10.803 2.16 14.726 6.082 3.923 3.923 6.082 9.153 6.083 14.727 0 5.574-2.16 10.803-6.08 14.724-2.662 2.662-14.104 11.423-28.49 19.615-19.268 10.973-29.896 13.172-34.181 13.564.44-4.753 2.951-14.568 11.484-30.338 8.87-16.394 19-29.563 21.73-32.293 3.922-3.921 9.152-6.08 14.727-6.081v-20.786h-.001c-10.655 0-21.311 4.057-29.424 12.169-10.766 10.765-53.872 73.633-34.33 93.175 3.534 3.533 8.479 5.017 14.28 5.017 26.29 0 70.083-30.525 78.903-39.344 16.227-16.226 16.225-42.62-.003-58.846z" />
			</g>
			<path d="M413.39 175.727c-3.484-3.484-3.482-9.155.003-12.639 3.484-3.484 9.153-3.484 12.638 0 3.484 3.485 3.484 9.153 0 12.637-3.485 3.485-9.156 3.487-12.64.002m-69.848-69.842c-3.484-3.484-3.482-9.155.002-12.639 3.485-3.484 9.154-3.484 12.638 0 3.485 3.484 3.485 9.153 0 12.637-3.484 3.484-9.155 3.486-12.64.002M317.197 353.82L432.723 238.3c23.767-28.108 30.89-64.893 21-98.37l34.503-9.243a3.72 3.72 0 002.627-4.551 3.72 3.72 0 00-4.55-2.627l-34.939 9.362c-5.316-14.241-13.813-27.709-25.532-39.427-11.72-11.718-25.188-20.215-39.43-25.53l9.363-34.936a3.72 3.72 0 00-2.627-4.55 3.717 3.717 0 00-4.552 2.626l-9.243 34.5c-33.482-9.89-70.27-2.768-98.379 21L165.438 202.071l151.759 151.747z"
					fill="#3DDC84" />
			<path d="M202.565 239.196l87.12-87.111c15.886-15.886 15.886-41.88 0-57.765-15.887-15.886-41.884-15.886-57.77 0l-23.13 23.129-63.988 63.982M336.713 373.334l87.118-87.112c15.887-15.885 15.887-41.88 0-57.765-15.886-15.885-41.882-15.885-57.769 0l-23.13 23.129-63.988 63.983"
					fill="#37BF6E" />
			<path d="M281.22 143.62c15.886-15.885 15.886-41.88 0-57.765-15.887-15.885-41.884-15.885-57.77 0l-23.13 23.13-66.533 66.527-12.075 12.074c-2.846 2.846-2.847 7.503 0 10.35l47.418 47.415c2.847 2.846 7.504 2.846 10.35 0l12.076-12.075 89.663-89.656zM432.697 295.087c15.887-15.885 15.887-41.88 0-57.765-15.886-15.885-41.882-15.885-57.769 0l-23.13 23.13-66.533 66.527-12.075 12.074c-2.846 2.846-2.846 7.503 0 10.35l47.418 47.414c2.847 2.847 7.504 2.847 10.35 0l12.076-12.074 89.663-89.656z"
					fill="#4285F4" />
		</g>
	</g>
</svg>
