<svg fill="none" height="423" viewBox="0 0 1078 423" width="1078"
	xmlns="http://www.w3.org/2000/svg">
	<path
		d="M563.089 123.96H565.537L572.977 141H570.049L568.105 136.536H560.473L558.553 141H555.649L563.089 123.96ZM561.553 134.04H567.025L564.289 127.752L561.553 134.04ZM579.522 141.24C578.706 141.24 577.938 141.08 577.218 140.76C576.514 140.424 575.906 139.976 575.394 139.416C574.882 138.84 574.474 138.176 574.17 137.424C573.882 136.672 573.738 135.864 573.738 135C573.738 134.136 573.882 133.328 574.17 132.576C574.474 131.824 574.882 131.168 575.394 130.608C575.906 130.032 576.514 129.584 577.218 129.264C577.938 128.928 578.706 128.76 579.522 128.76C580.386 128.76 581.154 128.952 581.826 129.336C582.514 129.704 583.026 130.128 583.362 130.608V123H586.002V141H583.362V139.392C583.026 139.872 582.514 140.304 581.826 140.688C581.154 141.056 580.386 141.24 579.522 141.24ZM580.002 138.84C580.53 138.84 581.01 138.744 581.442 138.552C581.89 138.344 582.266 138.072 582.57 137.736C582.89 137.384 583.138 136.976 583.314 136.512C583.49 136.048 583.578 135.544 583.578 135C583.578 134.456 583.49 133.952 583.314 133.488C583.138 133.024 582.89 132.624 582.57 132.288C582.266 131.936 581.89 131.664 581.442 131.472C581.01 131.264 580.53 131.16 580.002 131.16C579.474 131.16 578.986 131.264 578.538 131.472C578.106 131.664 577.73 131.936 577.41 132.288C577.106 132.624 576.866 133.024 576.69 133.488C576.514 133.952 576.426 134.456 576.426 135C576.426 135.544 576.514 136.048 576.69 136.512C576.866 136.976 577.106 137.384 577.41 137.736C577.73 138.072 578.106 138.344 578.538 138.552C578.986 138.744 579.474 138.84 580.002 138.84ZM587.899 129H590.827L594.475 137.424L598.147 129H601.099L595.651 141H593.323L587.899 129ZM606.089 141.24C605.401 141.24 604.785 141.144 604.241 140.952C603.713 140.744 603.265 140.48 602.897 140.16C602.545 139.824 602.273 139.448 602.081 139.032C601.905 138.6 601.817 138.152 601.817 137.688C601.817 137.096 601.937 136.584 602.177 136.152C602.417 135.72 602.761 135.352 603.209 135.048C603.673 134.744 604.233 134.496 604.889 134.304C605.545 134.096 606.297 133.92 607.145 133.776C608.009 133.616 608.657 133.464 609.089 133.32C609.521 133.16 609.737 132.872 609.737 132.456C609.737 131.992 609.521 131.624 609.089 131.352C608.673 131.064 608.137 130.92 607.481 130.92C606.713 130.92 606.081 131.12 605.585 131.52C605.105 131.904 604.825 132.4 604.745 133.008H602.201C602.217 132.496 602.345 131.984 602.585 131.472C602.841 130.96 603.193 130.504 603.641 130.104C604.105 129.704 604.657 129.384 605.297 129.144C605.953 128.888 606.697 128.76 607.529 128.76C608.169 128.76 608.785 128.84 609.377 129C609.969 129.16 610.489 129.416 610.937 129.768C611.401 130.12 611.761 130.576 612.017 131.136C612.289 131.68 612.425 132.344 612.425 133.128V141H609.785V139.464C609.401 140.008 608.889 140.44 608.249 140.76C607.625 141.08 606.905 141.24 606.089 141.24ZM606.593 139.104C607.025 139.104 607.433 139.032 607.817 138.888C608.201 138.728 608.537 138.512 608.825 138.24C609.113 137.968 609.345 137.656 609.521 137.304C609.697 136.936 609.785 136.536 609.785 136.104V134.808C609.593 134.904 609.353 135 609.065 135.096C608.793 135.176 608.505 135.256 608.201 135.336C607.913 135.416 607.625 135.488 607.337 135.552C607.065 135.616 606.825 135.68 606.617 135.744C605.849 135.968 605.313 136.224 605.009 136.512C604.705 136.784 604.553 137.136 604.553 137.568C604.553 138.064 604.737 138.448 605.105 138.72C605.489 138.976 605.985 139.104 606.593 139.104ZM615.805 129H618.445V130.632C618.813 130.024 619.317 129.56 619.957 129.24C620.597 128.92 621.309 128.76 622.093 128.76C622.781 128.76 623.405 128.88 623.965 129.12C624.541 129.36 625.029 129.696 625.429 130.128C625.829 130.56 626.133 131.088 626.341 131.712C626.565 132.32 626.677 133.008 626.677 133.776V141H624.037V134.208C624.037 133.248 623.813 132.504 623.365 131.976C622.917 131.432 622.309 131.16 621.541 131.16C620.661 131.16 619.925 131.496 619.333 132.168C618.741 132.824 618.445 133.8 618.445 135.096V141H615.805V129ZM635.479 141.24C634.567 141.24 633.727 141.08 632.959 140.76C632.191 140.424 631.527 139.976 630.967 139.416C630.407 138.856 629.967 138.2 629.647 137.448C629.343 136.68 629.191 135.864 629.191 135C629.191 134.136 629.343 133.328 629.647 132.576C629.967 131.808 630.407 131.144 630.967 130.584C631.527 130.024 632.191 129.584 632.959 129.264C633.727 128.928 634.567 128.76 635.479 128.76C636.263 128.76 636.991 128.88 637.663 129.12C638.351 129.344 638.951 129.664 639.463 130.08C639.991 130.496 640.431 130.984 640.783 131.544C641.151 132.104 641.415 132.72 641.575 133.392H638.791C638.551 132.736 638.143 132.2 637.567 131.784C637.007 131.368 636.311 131.16 635.479 131.16C634.951 131.16 634.463 131.256 634.015 131.448C633.567 131.64 633.183 131.904 632.863 132.24C632.559 132.576 632.319 132.984 632.143 133.464C631.967 133.928 631.879 134.44 631.879 135C631.879 135.56 631.967 136.08 632.143 136.56C632.319 137.024 632.559 137.424 632.863 137.76C633.183 138.096 633.567 138.36 634.015 138.552C634.463 138.744 634.951 138.84 635.479 138.84C636.311 138.84 637.007 138.632 637.567 138.216C638.143 137.8 638.551 137.264 638.791 136.608H641.575C641.415 137.28 641.151 137.896 640.783 138.456C640.431 139.016 639.991 139.504 639.463 139.92C638.951 140.336 638.351 140.664 637.663 140.904C636.991 141.128 636.263 141.24 635.479 141.24ZM649.375 141.24C648.479 141.24 647.655 141.088 646.903 140.784C646.151 140.464 645.503 140.032 644.959 139.488C644.415 138.928 643.991 138.264 643.687 137.496C643.383 136.728 643.231 135.896 643.231 135C643.231 134.12 643.375 133.296 643.663 132.528C643.967 131.76 644.383 131.104 644.911 130.56C645.455 130 646.103 129.56 646.855 129.24C647.623 128.92 648.471 128.76 649.399 128.76C650.311 128.76 651.151 128.928 651.919 129.264C652.687 129.6 653.335 130.072 653.863 130.68C654.407 131.288 654.815 132.016 655.087 132.864C655.359 133.696 655.463 134.624 655.399 135.648H645.847C645.863 136.112 645.959 136.544 646.135 136.944C646.327 137.328 646.575 137.672 646.879 137.976C647.199 138.264 647.575 138.496 648.007 138.672C648.455 138.832 648.943 138.912 649.471 138.912C650.143 138.912 650.743 138.776 651.271 138.504C651.815 138.232 652.223 137.808 652.495 137.232H655.255C655.079 137.792 654.815 138.32 654.463 138.816C654.127 139.296 653.703 139.72 653.191 140.088C652.695 140.44 652.127 140.72 651.487 140.928C650.847 141.136 650.143 141.24 649.375 141.24ZM649.327 130.968C648.495 130.968 647.759 131.208 647.119 131.688C646.495 132.152 646.095 132.848 645.919 133.776H652.567C652.359 132.8 651.951 132.088 651.343 131.64C650.735 131.192 650.063 130.968 649.327 130.968ZM663.03 141.24C662.214 141.24 661.446 141.08 660.726 140.76C660.022 140.424 659.414 139.976 658.902 139.416C658.39 138.84 657.982 138.176 657.678 137.424C657.39 136.672 657.246 135.864 657.246 135C657.246 134.136 657.39 133.328 657.678 132.576C657.982 131.824 658.39 131.168 658.902 130.608C659.414 130.032 660.022 129.584 660.726 129.264C661.446 128.928 662.214 128.76 663.03 128.76C663.894 128.76 664.662 128.952 665.334 129.336C666.022 129.704 666.534 130.128 666.87 130.608V123H669.51V141H666.87V139.392C666.534 139.872 666.022 140.304 665.334 140.688C664.662 141.056 663.894 141.24 663.03 141.24ZM663.51 138.84C664.038 138.84 664.518 138.744 664.95 138.552C665.398 138.344 665.774 138.072 666.078 137.736C666.398 137.384 666.646 136.976 666.822 136.512C666.998 136.048 667.086 135.544 667.086 135C667.086 134.456 666.998 133.952 666.822 133.488C666.646 133.024 666.398 132.624 666.078 132.288C665.774 131.936 665.398 131.664 664.95 131.472C664.518 131.264 664.038 131.16 663.51 131.16C662.982 131.16 662.494 131.264 662.046 131.472C661.614 131.664 661.238 131.936 660.918 132.288C660.614 132.624 660.374 133.024 660.198 133.488C660.022 133.952 659.934 134.456 659.934 135C659.934 135.544 660.022 136.048 660.198 136.512C660.374 136.976 660.614 137.384 660.918 137.736C661.238 138.072 661.614 138.344 662.046 138.552C662.494 138.744 662.982 138.84 663.51 138.84ZM683.031 141.24C682.343 141.24 681.719 141.12 681.159 140.88C680.615 140.64 680.151 140.304 679.767 139.872C679.383 139.424 679.087 138.888 678.879 138.264C678.671 137.64 678.567 136.944 678.567 136.176V129H681.207V135.744C681.207 136.704 681.415 137.464 681.831 138.024C682.247 138.568 682.839 138.84 683.607 138.84C684.471 138.84 685.175 138.512 685.719 137.856C686.263 137.184 686.535 136.2 686.535 134.904V129H689.175V141H686.535V139.368C686.183 139.976 685.703 140.44 685.095 140.76C684.487 141.08 683.799 141.24 683.031 141.24ZM696.951 141.24C696.247 141.24 695.591 141.152 694.983 140.976C694.375 140.8 693.839 140.544 693.375 140.208C692.927 139.872 692.559 139.464 692.271 138.984C691.999 138.504 691.847 137.96 691.815 137.352H694.551C694.663 138.008 694.951 138.472 695.415 138.744C695.895 139 696.431 139.128 697.023 139.128C697.599 139.128 698.063 139.024 698.415 138.816C698.783 138.592 698.967 138.272 698.967 137.856C698.967 137.44 698.823 137.112 698.535 136.872C698.263 136.632 697.815 136.432 697.191 136.272L695.223 135.744C694.183 135.472 693.407 135.024 692.895 134.4C692.399 133.76 692.151 133 692.151 132.12C692.151 131.624 692.255 131.168 692.463 130.752C692.687 130.336 692.991 129.984 693.375 129.696C693.759 129.392 694.223 129.16 694.767 129C695.327 128.84 695.943 128.76 696.615 128.76C697.255 128.76 697.847 128.848 698.391 129.024C698.935 129.2 699.407 129.448 699.807 129.768C700.207 130.072 700.527 130.448 700.767 130.896C701.007 131.328 701.151 131.816 701.199 132.36H698.559C698.431 131.848 698.183 131.472 697.815 131.232C697.463 130.992 697.055 130.872 696.591 130.872C696.079 130.872 695.655 130.984 695.319 131.208C694.999 131.416 694.839 131.712 694.839 132.096C694.839 132.48 694.975 132.784 695.247 133.008C695.535 133.232 695.935 133.408 696.447 133.536L698.463 134.064C699.551 134.336 700.351 134.784 700.863 135.408C701.391 136.016 701.655 136.776 701.655 137.688C701.655 138.264 701.535 138.776 701.295 139.224C701.055 139.672 700.727 140.048 700.311 140.352C699.895 140.64 699.399 140.856 698.823 141C698.247 141.16 697.623 141.24 696.951 141.24ZM709.633 141.24C708.737 141.24 707.913 141.088 707.161 140.784C706.409 140.464 705.761 140.032 705.217 139.488C704.673 138.928 704.249 138.264 703.945 137.496C703.641 136.728 703.489 135.896 703.489 135C703.489 134.12 703.633 133.296 703.921 132.528C704.225 131.76 704.641 131.104 705.169 130.56C705.713 130 706.361 129.56 707.113 129.24C707.881 128.92 708.729 128.76 709.657 128.76C710.569 128.76 711.409 128.928 712.177 129.264C712.945 129.6 713.593 130.072 714.121 130.68C714.665 131.288 715.073 132.016 715.345 132.864C715.617 133.696 715.721 134.624 715.657 135.648H706.105C706.121 136.112 706.217 136.544 706.393 136.944C706.585 137.328 706.833 137.672 707.137 137.976C707.457 138.264 707.833 138.496 708.265 138.672C708.713 138.832 709.201 138.912 709.729 138.912C710.401 138.912 711.001 138.776 711.529 138.504C712.073 138.232 712.481 137.808 712.753 137.232H715.513C715.337 137.792 715.073 138.32 714.721 138.816C714.385 139.296 713.961 139.72 713.449 140.088C712.953 140.44 712.385 140.72 711.745 140.928C711.105 141.136 710.401 141.24 709.633 141.24ZM709.585 130.968C708.753 130.968 708.017 131.208 707.377 131.688C706.753 132.152 706.353 132.848 706.177 133.776H712.825C712.617 132.8 712.209 132.088 711.601 131.64C710.993 131.192 710.321 130.968 709.585 130.968ZM729.44 141.24C728.528 141.24 727.688 141.08 726.92 140.76C726.152 140.424 725.488 139.976 724.928 139.416C724.368 138.856 723.928 138.2 723.608 137.448C723.304 136.68 723.152 135.864 723.152 135C723.152 134.136 723.304 133.328 723.608 132.576C723.928 131.808 724.368 131.144 724.928 130.584C725.488 130.024 726.152 129.584 726.92 129.264C727.688 128.928 728.528 128.76 729.44 128.76C730.224 128.76 730.952 128.88 731.624 129.12C732.312 129.344 732.912 129.664 733.424 130.08C733.952 130.496 734.392 130.984 734.744 131.544C735.112 132.104 735.376 132.72 735.536 133.392H732.752C732.512 132.736 732.104 132.2 731.528 131.784C730.968 131.368 730.272 131.16 729.44 131.16C728.912 131.16 728.424 131.256 727.976 131.448C727.528 131.64 727.144 131.904 726.824 132.24C726.52 132.576 726.28 132.984 726.104 133.464C725.928 133.928 725.84 134.44 725.84 135C725.84 135.56 725.928 136.08 726.104 136.56C726.28 137.024 726.52 137.424 726.824 137.76C727.144 138.096 727.528 138.36 727.976 138.552C728.424 138.744 728.912 138.84 729.44 138.84C730.272 138.84 730.968 138.632 731.528 138.216C732.104 137.8 732.512 137.264 732.752 136.608H735.536C735.376 137.28 735.112 137.896 734.744 138.456C734.392 139.016 733.952 139.504 733.424 139.92C732.912 140.336 732.312 140.664 731.624 140.904C730.952 141.128 730.224 141.24 729.44 141.24ZM741.488 141.24C740.8 141.24 740.184 141.144 739.64 140.952C739.112 140.744 738.664 140.48 738.296 140.16C737.944 139.824 737.672 139.448 737.48 139.032C737.304 138.6 737.216 138.152 737.216 137.688C737.216 137.096 737.336 136.584 737.576 136.152C737.816 135.72 738.16 135.352 738.608 135.048C739.072 134.744 739.632 134.496 740.288 134.304C740.944 134.096 741.696 133.92 742.544 133.776C743.408 133.616 744.056 133.464 744.488 133.32C744.92 133.16 745.136 132.872 745.136 132.456C745.136 131.992 744.92 131.624 744.488 131.352C744.072 131.064 743.536 130.92 742.88 130.92C742.112 130.92 741.48 131.12 740.984 131.52C740.504 131.904 740.224 132.4 740.144 133.008H737.6C737.616 132.496 737.744 131.984 737.984 131.472C738.24 130.96 738.592 130.504 739.04 130.104C739.504 129.704 740.056 129.384 740.696 129.144C741.352 128.888 742.096 128.76 742.928 128.76C743.568 128.76 744.184 128.84 744.776 129C745.368 129.16 745.888 129.416 746.336 129.768C746.8 130.12 747.16 130.576 747.416 131.136C747.688 131.68 747.824 132.344 747.824 133.128V141H745.184V139.464C744.8 140.008 744.288 140.44 743.648 140.76C743.024 141.08 742.304 141.24 741.488 141.24ZM741.992 139.104C742.424 139.104 742.832 139.032 743.216 138.888C743.6 138.728 743.936 138.512 744.224 138.24C744.512 137.968 744.744 137.656 744.92 137.304C745.096 136.936 745.184 136.536 745.184 136.104V134.808C744.992 134.904 744.752 135 744.464 135.096C744.192 135.176 743.904 135.256 743.6 135.336C743.312 135.416 743.024 135.488 742.736 135.552C742.464 135.616 742.224 135.68 742.016 135.744C741.248 135.968 740.712 136.224 740.408 136.512C740.104 136.784 739.952 137.136 739.952 137.568C739.952 138.064 740.136 138.448 740.504 138.72C740.888 138.976 741.384 139.104 741.992 139.104ZM755.428 141.24C754.724 141.24 754.068 141.152 753.46 140.976C752.852 140.8 752.316 140.544 751.852 140.208C751.404 139.872 751.036 139.464 750.748 138.984C750.476 138.504 750.324 137.96 750.292 137.352H753.028C753.14 138.008 753.428 138.472 753.892 138.744C754.372 139 754.908 139.128 755.5 139.128C756.076 139.128 756.54 139.024 756.892 138.816C757.26 138.592 757.444 138.272 757.444 137.856C757.444 137.44 757.3 137.112 757.012 136.872C756.74 136.632 756.292 136.432 755.668 136.272L753.7 135.744C752.66 135.472 751.884 135.024 751.372 134.4C750.876 133.76 750.628 133 750.628 132.12C750.628 131.624 750.732 131.168 750.94 130.752C751.164 130.336 751.468 129.984 751.852 129.696C752.236 129.392 752.7 129.16 753.244 129C753.804 128.84 754.42 128.76 755.092 128.76C755.732 128.76 756.324 128.848 756.868 129.024C757.412 129.2 757.884 129.448 758.284 129.768C758.684 130.072 759.004 130.448 759.244 130.896C759.484 131.328 759.628 131.816 759.676 132.36H757.036C756.908 131.848 756.66 131.472 756.292 131.232C755.94 130.992 755.532 130.872 755.068 130.872C754.556 130.872 754.132 130.984 753.796 131.208C753.476 131.416 753.316 131.712 753.316 132.096C753.316 132.48 753.452 132.784 753.724 133.008C754.012 133.232 754.412 133.408 754.924 133.536L756.94 134.064C758.028 134.336 758.828 134.784 759.34 135.408C759.868 136.016 760.132 136.776 760.132 137.688C760.132 138.264 760.012 138.776 759.772 139.224C759.532 139.672 759.204 140.048 758.788 140.352C758.372 140.64 757.876 140.856 757.3 141C756.724 141.16 756.1 141.24 755.428 141.24ZM768.109 141.24C767.213 141.24 766.389 141.088 765.637 140.784C764.885 140.464 764.237 140.032 763.693 139.488C763.149 138.928 762.725 138.264 762.421 137.496C762.117 136.728 761.965 135.896 761.965 135C761.965 134.12 762.109 133.296 762.397 132.528C762.701 131.76 763.117 131.104 763.645 130.56C764.189 130 764.837 129.56 765.589 129.24C766.357 128.92 767.205 128.76 768.133 128.76C769.045 128.76 769.885 128.928 770.653 129.264C771.421 129.6 772.069 130.072 772.597 130.68C773.141 131.288 773.549 132.016 773.821 132.864C774.093 133.696 774.197 134.624 774.133 135.648H764.581C764.597 136.112 764.693 136.544 764.869 136.944C765.061 137.328 765.309 137.672 765.613 137.976C765.933 138.264 766.309 138.496 766.741 138.672C767.189 138.832 767.677 138.912 768.205 138.912C768.877 138.912 769.477 138.776 770.005 138.504C770.549 138.232 770.957 137.808 771.229 137.232H773.989C773.813 137.792 773.549 138.32 773.197 138.816C772.861 139.296 772.437 139.72 771.925 140.088C771.429 140.44 770.861 140.72 770.221 140.928C769.581 141.136 768.877 141.24 768.109 141.24ZM768.061 130.968C767.229 130.968 766.493 131.208 765.853 131.688C765.229 132.152 764.829 132.848 764.653 133.776H771.301C771.093 132.8 770.685 132.088 770.077 131.64C769.469 131.192 768.797 130.968 768.061 130.968ZM781.068 141.24C780.364 141.24 779.708 141.152 779.1 140.976C778.492 140.8 777.956 140.544 777.492 140.208C777.044 139.872 776.676 139.464 776.388 138.984C776.116 138.504 775.964 137.96 775.932 137.352H778.668C778.78 138.008 779.068 138.472 779.532 138.744C780.012 139 780.548 139.128 781.14 139.128C781.716 139.128 782.18 139.024 782.532 138.816C782.9 138.592 783.084 138.272 783.084 137.856C783.084 137.44 782.94 137.112 782.652 136.872C782.38 136.632 781.932 136.432 781.308 136.272L779.34 135.744C778.3 135.472 777.524 135.024 777.012 134.4C776.516 133.76 776.268 133 776.268 132.12C776.268 131.624 776.372 131.168 776.58 130.752C776.804 130.336 777.108 129.984 777.492 129.696C777.876 129.392 778.34 129.16 778.884 129C779.444 128.84 780.06 128.76 780.732 128.76C781.372 128.76 781.964 128.848 782.508 129.024C783.052 129.2 783.524 129.448 783.924 129.768C784.324 130.072 784.644 130.448 784.884 130.896C785.124 131.328 785.268 131.816 785.316 132.36H782.676C782.548 131.848 782.3 131.472 781.932 131.232C781.58 130.992 781.172 130.872 780.708 130.872C780.196 130.872 779.772 130.984 779.436 131.208C779.116 131.416 778.956 131.712 778.956 132.096C778.956 132.48 779.092 132.784 779.364 133.008C779.652 133.232 780.052 133.408 780.564 133.536L782.58 134.064C783.668 134.336 784.468 134.784 784.98 135.408C785.508 136.016 785.772 136.776 785.772 137.688C785.772 138.264 785.652 138.776 785.412 139.224C785.172 139.672 784.844 140.048 784.428 140.352C784.012 140.64 783.516 140.856 782.94 141C782.364 141.16 781.74 141.24 781.068 141.24Z"
		fill="black" />
	<path
		d="M477.969 61.528C477.969 62.312 477.825 63.048 477.537 63.736C477.249 64.408 476.841 64.992 476.313 65.488C475.801 65.984 475.185 66.376 474.465 66.664C473.745 66.952 472.945 67.096 472.065 67.096H469.449V73H466.641V55.96H472.065C472.945 55.96 473.745 56.104 474.465 56.392C475.185 56.68 475.801 57.072 476.313 57.568C476.841 58.064 477.249 58.656 477.537 59.344C477.825 60.016 477.969 60.744 477.969 61.528ZM475.209 61.528C475.209 60.696 474.929 60 474.369 59.44C473.825 58.88 473.049 58.6 472.041 58.6H469.449V64.456H472.041C473.049 64.456 473.825 64.176 474.369 63.616C474.929 63.056 475.209 62.36 475.209 61.528ZM485.32 73.24C484.424 73.24 483.6 73.088 482.848 72.784C482.096 72.464 481.448 72.032 480.904 71.488C480.36 70.928 479.936 70.264 479.632 69.496C479.328 68.728 479.176 67.896 479.176 67C479.176 66.12 479.32 65.296 479.608 64.528C479.912 63.76 480.328 63.104 480.856 62.56C481.4 62 482.048 61.56 482.8 61.24C483.568 60.92 484.416 60.76 485.344 60.76C486.256 60.76 487.096 60.928 487.864 61.264C488.632 61.6 489.28 62.072 489.808 62.68C490.352 63.288 490.76 64.016 491.032 64.864C491.304 65.696 491.408 66.624 491.344 67.648H481.792C481.808 68.112 481.904 68.544 482.08 68.944C482.272 69.328 482.52 69.672 482.824 69.976C483.144 70.264 483.52 70.496 483.952 70.672C484.4 70.832 484.888 70.912 485.416 70.912C486.088 70.912 486.688 70.776 487.216 70.504C487.76 70.232 488.168 69.808 488.44 69.232H491.2C491.024 69.792 490.76 70.32 490.408 70.816C490.072 71.296 489.648 71.72 489.136 72.088C488.64 72.44 488.072 72.72 487.432 72.928C486.792 73.136 486.088 73.24 485.32 73.24ZM485.272 62.968C484.44 62.968 483.704 63.208 483.064 63.688C482.44 64.152 482.04 64.848 481.864 65.776H488.512C488.304 64.8 487.896 64.088 487.288 63.64C486.68 63.192 486.008 62.968 485.272 62.968ZM494.055 61H496.695V63.136C496.807 62.8 496.967 62.496 497.175 62.224C497.399 61.936 497.647 61.696 497.919 61.504C498.207 61.296 498.519 61.144 498.855 61.048C499.191 60.936 499.527 60.88 499.863 60.88C500.231 60.88 500.575 60.912 500.895 60.976V63.688C500.671 63.608 500.455 63.552 500.247 63.52C500.039 63.488 499.815 63.472 499.575 63.472C499.191 63.472 498.823 63.552 498.471 63.712C498.135 63.872 497.831 64.104 497.559 64.408C497.303 64.712 497.095 65.096 496.935 65.56C496.775 66.024 496.695 66.552 496.695 67.144V73H494.055V61ZM504.3 63.352H501.804V61H504.3V58.984C504.3 58.312 504.404 57.72 504.612 57.208C504.82 56.696 505.108 56.264 505.476 55.912C505.86 55.56 506.3 55.296 506.796 55.12C507.292 54.944 507.828 54.856 508.404 54.856C508.82 54.856 509.188 54.888 509.508 54.952C509.828 55 510.116 55.064 510.372 55.144V57.496C510.18 57.416 509.956 57.36 509.7 57.328C509.46 57.28 509.212 57.256 508.956 57.256C508.268 57.256 507.756 57.408 507.42 57.712C507.1 58.016 506.94 58.544 506.94 59.296V61H510.372V63.352H506.94V73H504.3V63.352ZM517.667 73.24C516.771 73.24 515.939 73.08 515.171 72.76C514.419 72.44 513.755 72 513.179 71.44C512.619 70.864 512.179 70.2 511.859 69.448C511.539 68.68 511.379 67.864 511.379 67C511.379 66.136 511.539 65.328 511.859 64.576C512.179 63.808 512.619 63.144 513.179 62.584C513.755 62.008 514.419 61.56 515.171 61.24C515.939 60.92 516.771 60.76 517.667 60.76C518.547 60.76 519.371 60.92 520.139 61.24C520.907 61.56 521.571 62.008 522.131 62.584C522.707 63.144 523.155 63.808 523.475 64.576C523.795 65.328 523.955 66.136 523.955 67C523.955 67.864 523.795 68.68 523.475 69.448C523.155 70.2 522.707 70.864 522.131 71.44C521.571 72 520.907 72.44 520.139 72.76C519.371 73.08 518.547 73.24 517.667 73.24ZM517.667 70.792C518.195 70.792 518.675 70.696 519.107 70.504C519.555 70.312 519.939 70.048 520.259 69.712C520.579 69.36 520.827 68.952 521.003 68.488C521.179 68.024 521.267 67.528 521.267 67C521.267 66.472 521.179 65.976 521.003 65.512C520.827 65.048 520.579 64.648 520.259 64.312C519.939 63.96 519.555 63.688 519.107 63.496C518.675 63.304 518.195 63.208 517.667 63.208C517.139 63.208 516.651 63.304 516.203 63.496C515.755 63.688 515.371 63.96 515.051 64.312C514.731 64.648 514.483 65.048 514.307 65.512C514.131 65.976 514.043 66.472 514.043 67C514.043 67.528 514.131 68.024 514.307 68.488C514.483 68.952 514.731 69.36 515.051 69.712C515.371 70.048 515.755 70.312 516.203 70.504C516.651 70.696 517.139 70.792 517.667 70.792ZM526.61 61H529.25V63.136C529.362 62.8 529.522 62.496 529.73 62.224C529.954 61.936 530.202 61.696 530.474 61.504C530.762 61.296 531.074 61.144 531.41 61.048C531.746 60.936 532.082 60.88 532.418 60.88C532.786 60.88 533.13 60.912 533.45 60.976V63.688C533.226 63.608 533.01 63.552 532.802 63.52C532.594 63.488 532.37 63.472 532.13 63.472C531.746 63.472 531.378 63.552 531.026 63.712C530.69 63.872 530.386 64.104 530.114 64.408C529.858 64.712 529.65 65.096 529.49 65.56C529.33 66.024 529.25 66.552 529.25 67.144V73H526.61V61ZM551.015 66.256C551.015 65.312 550.839 64.56 550.487 64C550.135 63.44 549.599 63.16 548.879 63.16C548.047 63.16 547.367 63.488 546.839 64.144C546.327 64.784 546.055 65.704 546.023 66.904V73H543.383V66.256C543.383 65.312 543.207 64.56 542.855 64C542.503 63.44 541.967 63.16 541.247 63.16C540.383 63.16 539.687 63.504 539.159 64.192C538.631 64.864 538.367 65.832 538.367 67.096V73H535.727V61H538.367V62.632C538.703 62.072 539.159 61.624 539.735 61.288C540.327 60.936 541.007 60.76 541.775 60.76C542.671 60.76 543.431 60.968 544.055 61.384C544.695 61.8 545.175 62.384 545.495 63.136C545.847 62.368 546.375 61.784 547.079 61.384C547.783 60.968 548.535 60.76 549.335 60.76C550.695 60.76 551.751 61.224 552.503 62.152C553.271 63.064 553.655 64.288 553.655 65.824V73H551.015V66.256ZM560.488 73.24C559.8 73.24 559.184 73.144 558.64 72.952C558.112 72.744 557.664 72.48 557.296 72.16C556.944 71.824 556.672 71.448 556.48 71.032C556.304 70.6 556.216 70.152 556.216 69.688C556.216 69.096 556.336 68.584 556.576 68.152C556.816 67.72 557.16 67.352 557.608 67.048C558.072 66.744 558.632 66.496 559.288 66.304C559.944 66.096 560.696 65.92 561.544 65.776C562.408 65.616 563.056 65.464 563.488 65.32C563.92 65.16 564.136 64.872 564.136 64.456C564.136 63.992 563.92 63.624 563.488 63.352C563.072 63.064 562.536 62.92 561.88 62.92C561.112 62.92 560.48 63.12 559.984 63.52C559.504 63.904 559.224 64.4 559.144 65.008H556.6C556.616 64.496 556.744 63.984 556.984 63.472C557.24 62.96 557.592 62.504 558.04 62.104C558.504 61.704 559.056 61.384 559.696 61.144C560.352 60.888 561.096 60.76 561.928 60.76C562.568 60.76 563.184 60.84 563.776 61C564.368 61.16 564.888 61.416 565.336 61.768C565.8 62.12 566.16 62.576 566.416 63.136C566.688 63.68 566.824 64.344 566.824 65.128V73H564.184V71.464C563.8 72.008 563.288 72.44 562.648 72.76C562.024 73.08 561.304 73.24 560.488 73.24ZM560.992 71.104C561.424 71.104 561.832 71.032 562.216 70.888C562.6 70.728 562.936 70.512 563.224 70.24C563.512 69.968 563.744 69.656 563.92 69.304C564.096 68.936 564.184 68.536 564.184 68.104V66.808C563.992 66.904 563.752 67 563.464 67.096C563.192 67.176 562.904 67.256 562.6 67.336C562.312 67.416 562.024 67.488 561.736 67.552C561.464 67.616 561.224 67.68 561.016 67.744C560.248 67.968 559.712 68.224 559.408 68.512C559.104 68.784 558.952 69.136 558.952 69.568C558.952 70.064 559.136 70.448 559.504 70.72C559.888 70.976 560.384 71.104 560.992 71.104ZM570.204 61H572.844V62.632C573.212 62.024 573.716 61.56 574.356 61.24C574.996 60.92 575.708 60.76 576.492 60.76C577.18 60.76 577.804 60.88 578.364 61.12C578.94 61.36 579.428 61.696 579.828 62.128C580.228 62.56 580.532 63.088 580.74 63.712C580.964 64.32 581.076 65.008 581.076 65.776V73H578.436V66.208C578.436 65.248 578.212 64.504 577.764 63.976C577.316 63.432 576.708 63.16 575.94 63.16C575.06 63.16 574.324 63.496 573.732 64.168C573.14 64.824 572.844 65.8 572.844 67.096V73H570.204V61ZM589.878 73.24C588.966 73.24 588.126 73.08 587.358 72.76C586.59 72.424 585.926 71.976 585.366 71.416C584.806 70.856 584.366 70.2 584.046 69.448C583.742 68.68 583.59 67.864 583.59 67C583.59 66.136 583.742 65.328 584.046 64.576C584.366 63.808 584.806 63.144 585.366 62.584C585.926 62.024 586.59 61.584 587.358 61.264C588.126 60.928 588.966 60.76 589.878 60.76C590.662 60.76 591.39 60.88 592.062 61.12C592.75 61.344 593.35 61.664 593.862 62.08C594.39 62.496 594.83 62.984 595.182 63.544C595.55 64.104 595.814 64.72 595.974 65.392H593.19C592.95 64.736 592.542 64.2 591.966 63.784C591.406 63.368 590.71 63.16 589.878 63.16C589.35 63.16 588.862 63.256 588.414 63.448C587.966 63.64 587.582 63.904 587.262 64.24C586.958 64.576 586.718 64.984 586.542 65.464C586.366 65.928 586.278 66.44 586.278 67C586.278 67.56 586.366 68.08 586.542 68.56C586.718 69.024 586.958 69.424 587.262 69.76C587.582 70.096 587.966 70.36 588.414 70.552C588.862 70.744 589.35 70.84 589.878 70.84C590.71 70.84 591.406 70.632 591.966 70.216C592.542 69.8 592.95 69.264 593.19 68.608H595.974C595.814 69.28 595.55 69.896 595.182 70.456C594.83 71.016 594.39 71.504 593.862 71.92C593.35 72.336 592.75 72.664 592.062 72.904C591.39 73.128 590.662 73.24 589.878 73.24ZM603.773 73.24C602.877 73.24 602.053 73.088 601.301 72.784C600.549 72.464 599.901 72.032 599.357 71.488C598.813 70.928 598.389 70.264 598.085 69.496C597.781 68.728 597.629 67.896 597.629 67C597.629 66.12 597.773 65.296 598.061 64.528C598.365 63.76 598.781 63.104 599.309 62.56C599.853 62 600.501 61.56 601.253 61.24C602.021 60.92 602.869 60.76 603.797 60.76C604.709 60.76 605.549 60.928 606.317 61.264C607.085 61.6 607.733 62.072 608.261 62.68C608.805 63.288 609.213 64.016 609.485 64.864C609.757 65.696 609.861 66.624 609.797 67.648H600.245C600.261 68.112 600.357 68.544 600.533 68.944C600.725 69.328 600.973 69.672 601.277 69.976C601.597 70.264 601.973 70.496 602.405 70.672C602.853 70.832 603.341 70.912 603.869 70.912C604.541 70.912 605.141 70.776 605.669 70.504C606.213 70.232 606.621 69.808 606.893 69.232H609.653C609.477 69.792 609.213 70.32 608.861 70.816C608.525 71.296 608.101 71.72 607.589 72.088C607.093 72.44 606.525 72.72 605.885 72.928C605.245 73.136 604.541 73.24 603.773 73.24ZM603.725 62.968C602.893 62.968 602.157 63.208 601.517 63.688C600.893 64.152 600.493 64.848 600.317 65.776H606.965C606.757 64.8 606.349 64.088 605.741 63.64C605.133 63.192 604.461 62.968 603.725 62.968ZM619.477 58.384C618.997 58.384 618.581 58.216 618.229 57.88C617.877 57.528 617.701 57.104 617.701 56.608C617.701 56.128 617.877 55.72 618.229 55.384C618.581 55.032 618.997 54.856 619.477 54.856C619.973 54.856 620.389 55.032 620.725 55.384C621.061 55.72 621.229 56.128 621.229 56.608C621.229 57.104 621.061 57.528 620.725 57.88C620.389 58.216 619.973 58.384 619.477 58.384ZM618.157 61H620.797V73H618.157V61ZM639.632 66.256C639.632 65.312 639.456 64.56 639.104 64C638.752 63.44 638.216 63.16 637.496 63.16C636.664 63.16 635.984 63.488 635.456 64.144C634.944 64.784 634.672 65.704 634.64 66.904V73H632V66.256C632 65.312 631.824 64.56 631.472 64C631.12 63.44 630.584 63.16 629.864 63.16C629 63.16 628.304 63.504 627.776 64.192C627.248 64.864 626.984 65.832 626.984 67.096V73H624.344V61H626.984V62.632C627.32 62.072 627.776 61.624 628.352 61.288C628.944 60.936 629.624 60.76 630.392 60.76C631.288 60.76 632.048 60.968 632.672 61.384C633.312 61.8 633.792 62.384 634.112 63.136C634.464 62.368 634.992 61.784 635.696 61.384C636.4 60.968 637.152 60.76 637.952 60.76C639.312 60.76 640.368 61.224 641.12 62.152C641.888 63.064 642.272 64.288 642.272 65.824V73H639.632V66.256ZM645.649 78.016V61H648.289V62.608C648.625 62.128 649.137 61.704 649.825 61.336C650.513 60.952 651.289 60.76 652.153 60.76C652.969 60.76 653.729 60.928 654.433 61.264C655.153 61.584 655.769 62.032 656.281 62.608C656.793 63.168 657.193 63.824 657.481 64.576C657.785 65.328 657.937 66.136 657.937 67C657.937 67.864 657.785 68.672 657.481 69.424C657.193 70.176 656.793 70.84 656.281 71.416C655.769 71.976 655.153 72.424 654.433 72.76C653.729 73.08 652.969 73.24 652.153 73.24C651.289 73.24 650.513 73.056 649.825 72.688C649.137 72.304 648.625 71.872 648.289 71.392V78.016H645.649ZM651.673 70.84C652.201 70.84 652.681 70.744 653.113 70.552C653.561 70.344 653.937 70.072 654.241 69.736C654.561 69.384 654.809 68.976 654.985 68.512C655.161 68.048 655.249 67.544 655.249 67C655.249 66.456 655.161 65.952 654.985 65.488C654.809 65.024 654.561 64.624 654.241 64.288C653.937 63.936 653.561 63.664 653.113 63.472C652.681 63.264 652.201 63.16 651.673 63.16C651.145 63.16 650.657 63.264 650.209 63.472C649.761 63.664 649.377 63.936 649.057 64.288C648.753 64.624 648.513 65.024 648.337 65.488C648.161 65.952 648.073 66.456 648.073 67C648.073 67.544 648.161 68.048 648.337 68.512C648.513 68.976 648.753 69.384 649.057 69.736C649.377 70.072 649.761 70.344 650.209 70.552C650.657 70.744 651.145 70.84 651.673 70.84ZM660.626 61H663.266V63.136C663.378 62.8 663.538 62.496 663.746 62.224C663.97 61.936 664.218 61.696 664.49 61.504C664.778 61.296 665.09 61.144 665.426 61.048C665.762 60.936 666.098 60.88 666.434 60.88C666.802 60.88 667.146 60.912 667.466 60.976V63.688C667.242 63.608 667.026 63.552 666.818 63.52C666.61 63.488 666.386 63.472 666.146 63.472C665.762 63.472 665.394 63.552 665.042 63.712C664.706 63.872 664.402 64.104 664.13 64.408C663.874 64.712 663.666 65.096 663.506 65.56C663.346 66.024 663.266 66.552 663.266 67.144V73H660.626V61ZM674.862 73.24C673.966 73.24 673.134 73.08 672.366 72.76C671.614 72.44 670.95 72 670.374 71.44C669.814 70.864 669.374 70.2 669.054 69.448C668.734 68.68 668.574 67.864 668.574 67C668.574 66.136 668.734 65.328 669.054 64.576C669.374 63.808 669.814 63.144 670.374 62.584C670.95 62.008 671.614 61.56 672.366 61.24C673.134 60.92 673.966 60.76 674.862 60.76C675.742 60.76 676.566 60.92 677.334 61.24C678.102 61.56 678.766 62.008 679.326 62.584C679.902 63.144 680.35 63.808 680.67 64.576C680.99 65.328 681.15 66.136 681.15 67C681.15 67.864 680.99 68.68 680.67 69.448C680.35 70.2 679.902 70.864 679.326 71.44C678.766 72 678.102 72.44 677.334 72.76C676.566 73.08 675.742 73.24 674.862 73.24ZM674.862 70.792C675.39 70.792 675.87 70.696 676.302 70.504C676.75 70.312 677.134 70.048 677.454 69.712C677.774 69.36 678.022 68.952 678.198 68.488C678.374 68.024 678.462 67.528 678.462 67C678.462 66.472 678.374 65.976 678.198 65.512C678.022 65.048 677.774 64.648 677.454 64.312C677.134 63.96 676.75 63.688 676.302 63.496C675.87 63.304 675.39 63.208 674.862 63.208C674.334 63.208 673.846 63.304 673.398 63.496C672.95 63.688 672.566 63.96 672.246 64.312C671.926 64.648 671.678 65.048 671.502 65.512C671.326 65.976 671.238 66.472 671.238 67C671.238 67.528 671.326 68.024 671.502 68.488C671.678 68.952 671.926 69.36 672.246 69.712C672.566 70.048 672.95 70.312 673.398 70.504C673.846 70.696 674.334 70.792 674.862 70.792ZM681.821 61H684.749L688.397 69.424L692.069 61H695.021L689.573 73H687.245L681.821 61ZM701.859 73.24C700.963 73.24 700.139 73.088 699.387 72.784C698.635 72.464 697.987 72.032 697.443 71.488C696.899 70.928 696.475 70.264 696.171 69.496C695.867 68.728 695.715 67.896 695.715 67C695.715 66.12 695.859 65.296 696.147 64.528C696.451 63.76 696.867 63.104 697.395 62.56C697.939 62 698.587 61.56 699.339 61.24C700.107 60.92 700.955 60.76 701.883 60.76C702.795 60.76 703.635 60.928 704.403 61.264C705.171 61.6 705.819 62.072 706.347 62.68C706.891 63.288 707.299 64.016 707.571 64.864C707.843 65.696 707.947 66.624 707.883 67.648H698.331C698.347 68.112 698.443 68.544 698.619 68.944C698.811 69.328 699.059 69.672 699.363 69.976C699.683 70.264 700.059 70.496 700.491 70.672C700.939 70.832 701.427 70.912 701.955 70.912C702.627 70.912 703.227 70.776 703.755 70.504C704.299 70.232 704.707 69.808 704.979 69.232H707.739C707.563 69.792 707.299 70.32 706.947 70.816C706.611 71.296 706.187 71.72 705.675 72.088C705.179 72.44 704.611 72.72 703.971 72.928C703.331 73.136 702.627 73.24 701.859 73.24ZM701.811 62.968C700.979 62.968 700.243 63.208 699.603 63.688C698.979 64.152 698.579 64.848 698.403 65.776H705.051C704.843 64.8 704.435 64.088 703.827 63.64C703.219 63.192 702.547 62.968 701.811 62.968ZM725.882 66.256C725.882 65.312 725.706 64.56 725.354 64C725.002 63.44 724.466 63.16 723.746 63.16C722.914 63.16 722.234 63.488 721.706 64.144C721.194 64.784 720.922 65.704 720.89 66.904V73H718.25V66.256C718.25 65.312 718.074 64.56 717.722 64C717.37 63.44 716.834 63.16 716.114 63.16C715.25 63.16 714.554 63.504 714.026 64.192C713.498 64.864 713.234 65.832 713.234 67.096V73H710.594V61H713.234V62.632C713.57 62.072 714.026 61.624 714.602 61.288C715.194 60.936 715.874 60.76 716.642 60.76C717.538 60.76 718.298 60.968 718.922 61.384C719.562 61.8 720.042 62.384 720.362 63.136C720.714 62.368 721.242 61.784 721.946 61.384C722.65 60.968 723.402 60.76 724.202 60.76C725.562 60.76 726.618 61.224 727.37 62.152C728.138 63.064 728.522 64.288 728.522 65.824V73H725.882V66.256ZM737.203 73.24C736.307 73.24 735.483 73.088 734.731 72.784C733.979 72.464 733.331 72.032 732.787 71.488C732.243 70.928 731.819 70.264 731.515 69.496C731.211 68.728 731.059 67.896 731.059 67C731.059 66.12 731.203 65.296 731.491 64.528C731.795 63.76 732.211 63.104 732.739 62.56C733.283 62 733.931 61.56 734.683 61.24C735.451 60.92 736.299 60.76 737.227 60.76C738.139 60.76 738.979 60.928 739.747 61.264C740.515 61.6 741.163 62.072 741.691 62.68C742.235 63.288 742.643 64.016 742.915 64.864C743.187 65.696 743.291 66.624 743.227 67.648H733.675C733.691 68.112 733.787 68.544 733.963 68.944C734.155 69.328 734.403 69.672 734.707 69.976C735.027 70.264 735.403 70.496 735.835 70.672C736.283 70.832 736.771 70.912 737.299 70.912C737.971 70.912 738.571 70.776 739.099 70.504C739.643 70.232 740.051 69.808 740.323 69.232H743.083C742.907 69.792 742.643 70.32 742.291 70.816C741.955 71.296 741.531 71.72 741.019 72.088C740.523 72.44 739.955 72.72 739.315 72.928C738.675 73.136 737.971 73.24 737.203 73.24ZM737.155 62.968C736.323 62.968 735.587 63.208 734.947 63.688C734.323 64.152 733.923 64.848 733.747 65.776H740.395C740.187 64.8 739.779 64.088 739.171 63.64C738.563 63.192 737.891 62.968 737.155 62.968ZM745.938 61H748.578V62.632C748.946 62.024 749.45 61.56 750.09 61.24C750.73 60.92 751.442 60.76 752.226 60.76C752.914 60.76 753.538 60.88 754.098 61.12C754.674 61.36 755.162 61.696 755.562 62.128C755.962 62.56 756.266 63.088 756.474 63.712C756.698 64.32 756.81 65.008 756.81 65.776V73H754.17V66.208C754.17 65.248 753.946 64.504 753.498 63.976C753.05 63.432 752.442 63.16 751.674 63.16C750.794 63.16 750.058 63.496 749.466 64.168C748.874 64.824 748.578 65.8 748.578 67.096V73H745.938V61ZM765.255 73.12C764.679 73.12 764.143 73.04 763.647 72.88C763.151 72.72 762.711 72.48 762.327 72.16C761.959 71.824 761.671 71.408 761.463 70.912C761.255 70.4 761.151 69.808 761.151 69.136V63.352H758.655V61H761.151V57.664H763.791V61H767.223V63.352H763.791V68.704C763.791 69.456 763.951 69.984 764.271 70.288C764.607 70.592 765.119 70.744 765.807 70.744C766.063 70.744 766.311 70.728 766.551 70.696C766.807 70.648 767.031 70.584 767.223 70.504V72.856C766.951 72.936 766.655 73 766.335 73.048C766.031 73.096 765.671 73.12 765.255 73.12ZM773.951 73.24C773.247 73.24 772.591 73.152 771.983 72.976C771.375 72.8 770.839 72.544 770.375 72.208C769.927 71.872 769.559 71.464 769.271 70.984C768.999 70.504 768.847 69.96 768.815 69.352H771.551C771.663 70.008 771.951 70.472 772.415 70.744C772.895 71 773.431 71.128 774.023 71.128C774.599 71.128 775.063 71.024 775.415 70.816C775.783 70.592 775.967 70.272 775.967 69.856C775.967 69.44 775.823 69.112 775.535 68.872C775.263 68.632 774.815 68.432 774.191 68.272L772.223 67.744C771.183 67.472 770.407 67.024 769.895 66.4C769.399 65.76 769.151 65 769.151 64.12C769.151 63.624 769.255 63.168 769.463 62.752C769.687 62.336 769.991 61.984 770.375 61.696C770.759 61.392 771.223 61.16 771.767 61C772.327 60.84 772.943 60.76 773.615 60.76C774.255 60.76 774.847 60.848 775.391 61.024C775.935 61.2 776.407 61.448 776.807 61.768C777.207 62.072 777.527 62.448 777.767 62.896C778.007 63.328 778.151 63.816 778.199 64.36H775.559C775.431 63.848 775.183 63.472 774.815 63.232C774.463 62.992 774.055 62.872 773.591 62.872C773.079 62.872 772.655 62.984 772.319 63.208C771.999 63.416 771.839 63.712 771.839 64.096C771.839 64.48 771.975 64.784 772.247 65.008C772.535 65.232 772.935 65.408 773.447 65.536L775.463 66.064C776.551 66.336 777.351 66.784 777.863 67.408C778.391 68.016 778.655 68.776 778.655 69.688C778.655 70.264 778.535 70.776 778.295 71.224C778.055 71.672 777.727 72.048 777.311 72.352C776.895 72.64 776.399 72.856 775.823 73C775.247 73.16 774.623 73.24 773.951 73.24Z"
		fill="black" />
	<path
		d="M639.641 191.96H642.209L648.161 201.488L654.113 191.96H656.681V209H653.873V197.36L649.145 204.944H647.225L642.449 197.336V209H639.641V191.96ZM663.761 209.24C663.073 209.24 662.457 209.144 661.913 208.952C661.385 208.744 660.937 208.48 660.569 208.16C660.217 207.824 659.945 207.448 659.753 207.032C659.577 206.6 659.489 206.152 659.489 205.688C659.489 205.096 659.609 204.584 659.849 204.152C660.089 203.72 660.433 203.352 660.881 203.048C661.345 202.744 661.905 202.496 662.561 202.304C663.217 202.096 663.969 201.92 664.817 201.776C665.681 201.616 666.329 201.464 666.761 201.32C667.193 201.16 667.409 200.872 667.409 200.456C667.409 199.992 667.193 199.624 666.761 199.352C666.345 199.064 665.809 198.92 665.153 198.92C664.385 198.92 663.753 199.12 663.257 199.52C662.777 199.904 662.497 200.4 662.417 201.008H659.873C659.889 200.496 660.017 199.984 660.257 199.472C660.513 198.96 660.865 198.504 661.313 198.104C661.777 197.704 662.329 197.384 662.969 197.144C663.625 196.888 664.369 196.76 665.201 196.76C665.841 196.76 666.457 196.84 667.049 197C667.641 197.16 668.161 197.416 668.609 197.768C669.073 198.12 669.433 198.576 669.689 199.136C669.961 199.68 670.097 200.344 670.097 201.128V209H667.457V207.464C667.073 208.008 666.561 208.44 665.921 208.76C665.297 209.08 664.577 209.24 663.761 209.24ZM664.265 207.104C664.697 207.104 665.105 207.032 665.489 206.888C665.873 206.728 666.209 206.512 666.497 206.24C666.785 205.968 667.017 205.656 667.193 205.304C667.369 204.936 667.457 204.536 667.457 204.104V202.808C667.265 202.904 667.025 203 666.737 203.096C666.465 203.176 666.177 203.256 665.873 203.336C665.585 203.416 665.297 203.488 665.009 203.552C664.737 203.616 664.497 203.68 664.289 203.744C663.521 203.968 662.985 204.224 662.681 204.512C662.377 204.784 662.225 205.136 662.225 205.568C662.225 206.064 662.409 206.448 662.777 206.72C663.161 206.976 663.657 207.104 664.265 207.104ZM678.591 209.12C678.015 209.12 677.479 209.04 676.983 208.88C676.487 208.72 676.047 208.48 675.663 208.16C675.295 207.824 675.007 207.408 674.799 206.912C674.591 206.4 674.487 205.808 674.487 205.136V199.352H671.991V197H674.487V193.664H677.127V197H680.559V199.352H677.127V204.704C677.127 205.456 677.287 205.984 677.607 206.288C677.943 206.592 678.455 206.744 679.143 206.744C679.399 206.744 679.647 206.728 679.887 206.696C680.143 206.648 680.367 206.584 680.559 206.504V208.856C680.287 208.936 679.991 209 679.671 209.048C679.367 209.096 679.007 209.12 678.591 209.12ZM688.203 209.24C687.307 209.24 686.483 209.088 685.731 208.784C684.979 208.464 684.331 208.032 683.787 207.488C683.243 206.928 682.819 206.264 682.515 205.496C682.211 204.728 682.059 203.896 682.059 203C682.059 202.12 682.203 201.296 682.491 200.528C682.795 199.76 683.211 199.104 683.739 198.56C684.283 198 684.931 197.56 685.683 197.24C686.451 196.92 687.299 196.76 688.227 196.76C689.139 196.76 689.979 196.928 690.747 197.264C691.515 197.6 692.163 198.072 692.691 198.68C693.235 199.288 693.643 200.016 693.915 200.864C694.187 201.696 694.291 202.624 694.227 203.648H684.675C684.691 204.112 684.787 204.544 684.963 204.944C685.155 205.328 685.403 205.672 685.707 205.976C686.027 206.264 686.403 206.496 686.835 206.672C687.283 206.832 687.771 206.912 688.299 206.912C688.971 206.912 689.571 206.776 690.099 206.504C690.643 206.232 691.051 205.808 691.323 205.232H694.083C693.907 205.792 693.643 206.32 693.291 206.816C692.955 207.296 692.531 207.72 692.019 208.088C691.523 208.44 690.955 208.72 690.315 208.928C689.675 209.136 688.971 209.24 688.203 209.24ZM688.155 198.968C687.323 198.968 686.587 199.208 685.947 199.688C685.323 200.152 684.923 200.848 684.747 201.776H691.395C691.187 200.8 690.779 200.088 690.171 199.64C689.563 199.192 688.891 198.968 688.155 198.968ZM696.938 197H699.578V199.136C699.69 198.8 699.85 198.496 700.058 198.224C700.282 197.936 700.53 197.696 700.802 197.504C701.09 197.296 701.402 197.144 701.738 197.048C702.074 196.936 702.41 196.88 702.746 196.88C703.114 196.88 703.458 196.912 703.778 196.976V199.688C703.554 199.608 703.338 199.552 703.13 199.52C702.922 199.488 702.698 199.472 702.458 199.472C702.074 199.472 701.706 199.552 701.354 199.712C701.018 199.872 700.714 200.104 700.442 200.408C700.186 200.712 699.978 201.096 699.818 201.56C699.658 202.024 699.578 202.552 699.578 203.144V209H696.938V197ZM707.375 194.384C706.895 194.384 706.479 194.216 706.127 193.88C705.775 193.528 705.599 193.104 705.599 192.608C705.599 192.128 705.775 191.72 706.127 191.384C706.479 191.032 706.895 190.856 707.375 190.856C707.871 190.856 708.287 191.032 708.623 191.384C708.959 191.72 709.127 192.128 709.127 192.608C709.127 193.104 708.959 193.528 708.623 193.88C708.287 194.216 707.871 194.384 707.375 194.384ZM706.055 197H708.695V209H706.055V197ZM715.699 209.24C715.011 209.24 714.395 209.144 713.851 208.952C713.323 208.744 712.875 208.48 712.507 208.16C712.155 207.824 711.883 207.448 711.691 207.032C711.515 206.6 711.427 206.152 711.427 205.688C711.427 205.096 711.547 204.584 711.787 204.152C712.027 203.72 712.371 203.352 712.819 203.048C713.283 202.744 713.843 202.496 714.499 202.304C715.155 202.096 715.907 201.92 716.755 201.776C717.619 201.616 718.267 201.464 718.699 201.32C719.131 201.16 719.347 200.872 719.347 200.456C719.347 199.992 719.131 199.624 718.699 199.352C718.283 199.064 717.747 198.92 717.091 198.92C716.323 198.92 715.691 199.12 715.195 199.52C714.715 199.904 714.435 200.4 714.355 201.008H711.811C711.827 200.496 711.955 199.984 712.195 199.472C712.451 198.96 712.803 198.504 713.251 198.104C713.715 197.704 714.267 197.384 714.907 197.144C715.563 196.888 716.307 196.76 717.139 196.76C717.779 196.76 718.395 196.84 718.987 197C719.579 197.16 720.099 197.416 720.547 197.768C721.011 198.12 721.371 198.576 721.627 199.136C721.899 199.68 722.035 200.344 722.035 201.128V209H719.395V207.464C719.011 208.008 718.499 208.44 717.859 208.76C717.235 209.08 716.515 209.24 715.699 209.24ZM716.203 207.104C716.635 207.104 717.043 207.032 717.427 206.888C717.811 206.728 718.147 206.512 718.435 206.24C718.723 205.968 718.955 205.656 719.131 205.304C719.307 204.936 719.395 204.536 719.395 204.104V202.808C719.203 202.904 718.963 203 718.675 203.096C718.403 203.176 718.115 203.256 717.811 203.336C717.523 203.416 717.235 203.488 716.947 203.552C716.675 203.616 716.435 203.68 716.227 203.744C715.459 203.968 714.923 204.224 714.619 204.512C714.315 204.784 714.163 205.136 714.163 205.568C714.163 206.064 714.347 206.448 714.715 206.72C715.099 206.976 715.595 207.104 716.203 207.104ZM727.935 205.184C727.935 205.744 728.047 206.144 728.271 206.384C728.511 206.608 728.855 206.72 729.303 206.72C729.415 206.72 729.527 206.72 729.639 206.72C729.767 206.704 729.911 206.68 730.071 206.648V209C729.895 209.048 729.695 209.08 729.471 209.096C729.263 209.112 728.991 209.12 728.655 209.12C728.191 209.12 727.759 209.064 727.359 208.952C726.959 208.824 726.599 208.632 726.279 208.376C725.975 208.12 725.735 207.784 725.559 207.368C725.383 206.952 725.295 206.456 725.295 205.88V191H727.935V205.184ZM743.376 209.24C742.544 209.24 741.752 209.112 741 208.856C740.264 208.584 739.616 208.208 739.056 207.728C738.496 207.248 738.048 206.664 737.712 205.976C737.376 205.288 737.2 204.512 737.184 203.648H739.824C739.856 204.112 739.968 204.536 740.16 204.92C740.368 205.288 740.624 205.6 740.928 205.856C741.248 206.112 741.616 206.312 742.032 206.456C742.448 206.584 742.896 206.648 743.376 206.648C744.24 206.648 744.96 206.424 745.536 205.976C746.112 205.512 746.408 204.864 746.424 204.032C746.424 203.12 746.12 202.44 745.512 201.992C744.92 201.544 744.128 201.32 743.136 201.32H741.792V199.064H743.136C743.984 199.064 744.656 198.84 745.152 198.392C745.664 197.944 745.928 197.36 745.944 196.64C745.944 196.288 745.872 195.968 745.728 195.68C745.6 195.376 745.416 195.12 745.176 194.912C744.936 194.704 744.648 194.544 744.312 194.432C743.992 194.32 743.648 194.264 743.28 194.264C742.4 194.264 741.656 194.52 741.048 195.032C740.456 195.544 740.16 196.256 740.16 197.168H737.496C737.496 196.304 737.648 195.536 737.952 194.864C738.272 194.176 738.696 193.6 739.224 193.136C739.768 192.656 740.384 192.296 741.072 192.056C741.776 191.8 742.512 191.672 743.28 191.672C744.064 191.672 744.784 191.792 745.44 192.032C746.112 192.272 746.68 192.608 747.144 193.04C747.608 193.456 747.968 193.96 748.224 194.552C748.48 195.144 748.608 195.784 748.608 196.472C748.608 197.304 748.4 198.048 747.984 198.704C747.568 199.344 747.08 199.832 746.52 200.168C747.272 200.488 747.888 201 748.368 201.704C748.848 202.392 749.088 203.224 749.088 204.2C749.088 204.952 748.944 205.64 748.656 206.264C748.384 206.872 747.992 207.4 747.48 207.848C746.984 208.296 746.384 208.64 745.68 208.88C744.992 209.12 744.224 209.24 743.376 209.24ZM761.889 209.24C761.185 209.24 760.529 209.152 759.921 208.976C759.313 208.8 758.777 208.544 758.313 208.208C757.865 207.872 757.497 207.464 757.209 206.984C756.937 206.504 756.785 205.96 756.753 205.352H759.489C759.601 206.008 759.889 206.472 760.353 206.744C760.833 207 761.369 207.128 761.961 207.128C762.537 207.128 763.001 207.024 763.353 206.816C763.721 206.592 763.905 206.272 763.905 205.856C763.905 205.44 763.761 205.112 763.473 204.872C763.201 204.632 762.753 204.432 762.129 204.272L760.161 203.744C759.121 203.472 758.345 203.024 757.833 202.4C757.337 201.76 757.089 201 757.089 200.12C757.089 199.624 757.193 199.168 757.401 198.752C757.625 198.336 757.929 197.984 758.313 197.696C758.697 197.392 759.161 197.16 759.705 197C760.265 196.84 760.881 196.76 761.553 196.76C762.193 196.76 762.785 196.848 763.329 197.024C763.873 197.2 764.345 197.448 764.745 197.768C765.145 198.072 765.465 198.448 765.705 198.896C765.945 199.328 766.089 199.816 766.137 200.36H763.497C763.369 199.848 763.121 199.472 762.753 199.232C762.401 198.992 761.993 198.872 761.529 198.872C761.017 198.872 760.593 198.984 760.257 199.208C759.937 199.416 759.777 199.712 759.777 200.096C759.777 200.48 759.913 200.784 760.185 201.008C760.473 201.232 760.873 201.408 761.385 201.536L763.401 202.064C764.489 202.336 765.289 202.784 765.801 203.408C766.329 204.016 766.593 204.776 766.593 205.688C766.593 206.264 766.473 206.776 766.233 207.224C765.993 207.672 765.665 208.048 765.249 208.352C764.833 208.64 764.337 208.856 763.761 209C763.185 209.16 762.561 209.24 761.889 209.24ZM773.562 209.24C772.874 209.24 772.25 209.12 771.69 208.88C771.146 208.64 770.682 208.304 770.298 207.872C769.914 207.424 769.618 206.888 769.41 206.264C769.202 205.64 769.098 204.944 769.098 204.176V197H771.738V203.744C771.738 204.704 771.946 205.464 772.362 206.024C772.778 206.568 773.37 206.84 774.138 206.84C775.002 206.84 775.706 206.512 776.25 205.856C776.794 205.184 777.066 204.2 777.066 202.904V197H779.706V209H777.066V207.368C776.714 207.976 776.234 208.44 775.626 208.76C775.018 209.08 774.33 209.24 773.562 209.24ZM783.258 214.016V197H785.898V198.608C786.234 198.128 786.746 197.704 787.434 197.336C788.122 196.952 788.898 196.76 789.762 196.76C790.578 196.76 791.338 196.928 792.042 197.264C792.762 197.584 793.378 198.032 793.89 198.608C794.402 199.168 794.802 199.824 795.09 200.576C795.394 201.328 795.546 202.136 795.546 203C795.546 203.864 795.394 204.672 795.09 205.424C794.802 206.176 794.402 206.84 793.89 207.416C793.378 207.976 792.762 208.424 792.042 208.76C791.338 209.08 790.578 209.24 789.762 209.24C788.898 209.24 788.122 209.056 787.434 208.688C786.746 208.304 786.234 207.872 785.898 207.392V214.016H783.258ZM789.282 206.84C789.81 206.84 790.29 206.744 790.722 206.552C791.17 206.344 791.546 206.072 791.85 205.736C792.17 205.384 792.418 204.976 792.594 204.512C792.77 204.048 792.858 203.544 792.858 203C792.858 202.456 792.77 201.952 792.594 201.488C792.418 201.024 792.17 200.624 791.85 200.288C791.546 199.936 791.17 199.664 790.722 199.472C790.29 199.264 789.81 199.16 789.282 199.16C788.754 199.16 788.266 199.264 787.818 199.472C787.37 199.664 786.986 199.936 786.666 200.288C786.362 200.624 786.122 201.024 785.946 201.488C785.77 201.952 785.682 202.456 785.682 203C785.682 203.544 785.77 204.048 785.946 204.512C786.122 204.976 786.362 205.384 786.666 205.736C786.986 206.072 787.37 206.344 787.818 206.552C788.266 206.744 788.754 206.84 789.282 206.84ZM798.235 214.016V197H800.875V198.608C801.211 198.128 801.723 197.704 802.411 197.336C803.099 196.952 803.875 196.76 804.739 196.76C805.555 196.76 806.315 196.928 807.019 197.264C807.739 197.584 808.355 198.032 808.867 198.608C809.379 199.168 809.779 199.824 810.067 200.576C810.371 201.328 810.523 202.136 810.523 203C810.523 203.864 810.371 204.672 810.067 205.424C809.779 206.176 809.379 206.84 808.867 207.416C808.355 207.976 807.739 208.424 807.019 208.76C806.315 209.08 805.555 209.24 804.739 209.24C803.875 209.24 803.099 209.056 802.411 208.688C801.723 208.304 801.211 207.872 800.875 207.392V214.016H798.235ZM804.259 206.84C804.787 206.84 805.267 206.744 805.699 206.552C806.147 206.344 806.523 206.072 806.827 205.736C807.147 205.384 807.395 204.976 807.571 204.512C807.747 204.048 807.835 203.544 807.835 203C807.835 202.456 807.747 201.952 807.571 201.488C807.395 201.024 807.147 200.624 806.827 200.288C806.523 199.936 806.147 199.664 805.699 199.472C805.267 199.264 804.787 199.16 804.259 199.16C803.731 199.16 803.243 199.264 802.795 199.472C802.347 199.664 801.963 199.936 801.643 200.288C801.339 200.624 801.099 201.024 800.923 201.488C800.747 201.952 800.659 202.456 800.659 203C800.659 203.544 800.747 204.048 800.923 204.512C801.099 204.976 801.339 205.384 801.643 205.736C801.963 206.072 802.347 206.344 802.795 206.552C803.243 206.744 803.731 206.84 804.259 206.84ZM818.635 209.24C817.739 209.24 816.907 209.08 816.139 208.76C815.387 208.44 814.723 208 814.147 207.44C813.587 206.864 813.147 206.2 812.827 205.448C812.507 204.68 812.347 203.864 812.347 203C812.347 202.136 812.507 201.328 812.827 200.576C813.147 199.808 813.587 199.144 814.147 198.584C814.723 198.008 815.387 197.56 816.139 197.24C816.907 196.92 817.739 196.76 818.635 196.76C819.515 196.76 820.339 196.92 821.107 197.24C821.875 197.56 822.539 198.008 823.099 198.584C823.675 199.144 824.123 199.808 824.443 200.576C824.763 201.328 824.923 202.136 824.923 203C824.923 203.864 824.763 204.68 824.443 205.448C824.123 206.2 823.675 206.864 823.099 207.44C822.539 208 821.875 208.44 821.107 208.76C820.339 209.08 819.515 209.24 818.635 209.24ZM818.635 206.792C819.163 206.792 819.643 206.696 820.075 206.504C820.523 206.312 820.907 206.048 821.227 205.712C821.547 205.36 821.795 204.952 821.971 204.488C822.147 204.024 822.235 203.528 822.235 203C822.235 202.472 822.147 201.976 821.971 201.512C821.795 201.048 821.547 200.648 821.227 200.312C820.907 199.96 820.523 199.688 820.075 199.496C819.643 199.304 819.163 199.208 818.635 199.208C818.107 199.208 817.619 199.304 817.171 199.496C816.723 199.688 816.339 199.96 816.019 200.312C815.699 200.648 815.451 201.048 815.275 201.512C815.099 201.976 815.011 202.472 815.011 203C815.011 203.528 815.099 204.024 815.275 204.488C815.451 204.952 815.699 205.36 816.019 205.712C816.339 206.048 816.723 206.312 817.171 206.504C817.619 206.696 818.107 206.792 818.635 206.792ZM827.579 197H830.219V199.136C830.331 198.8 830.491 198.496 830.699 198.224C830.923 197.936 831.171 197.696 831.443 197.504C831.731 197.296 832.043 197.144 832.379 197.048C832.715 196.936 833.051 196.88 833.387 196.88C833.755 196.88 834.099 196.912 834.419 196.976V199.688C834.195 199.608 833.979 199.552 833.771 199.52C833.563 199.488 833.339 199.472 833.099 199.472C832.715 199.472 832.347 199.552 831.995 199.712C831.659 199.872 831.355 200.104 831.083 200.408C830.827 200.712 830.619 201.096 830.459 201.56C830.299 202.024 830.219 202.552 830.219 203.144V209H827.579V197ZM841.904 209.12C841.328 209.12 840.792 209.04 840.296 208.88C839.8 208.72 839.36 208.48 838.976 208.16C838.608 207.824 838.32 207.408 838.112 206.912C837.904 206.4 837.8 205.808 837.8 205.136V199.352H835.304V197H837.8V193.664H840.44V197H843.872V199.352H840.44V204.704C840.44 205.456 840.6 205.984 840.92 206.288C841.256 206.592 841.768 206.744 842.456 206.744C842.712 206.744 842.96 206.728 843.2 206.696C843.456 206.648 843.68 206.584 843.872 206.504V208.856C843.6 208.936 843.304 209 842.984 209.048C842.68 209.096 842.32 209.12 841.904 209.12Z"
		fill="black" />
	<path
		d="M738.953 262.648H734.009V259.96H746.729V262.648H741.761V277H738.953V262.648ZM752.12 277.24C751.224 277.24 750.392 277.08 749.624 276.76C748.872 276.44 748.208 276 747.632 275.44C747.072 274.864 746.632 274.2 746.312 273.448C745.992 272.68 745.832 271.864 745.832 271C745.832 270.136 745.992 269.328 746.312 268.576C746.632 267.808 747.072 267.144 747.632 266.584C748.208 266.008 748.872 265.56 749.624 265.24C750.392 264.92 751.224 264.76 752.12 264.76C753 264.76 753.824 264.92 754.592 265.24C755.36 265.56 756.024 266.008 756.584 266.584C757.16 267.144 757.608 267.808 757.928 268.576C758.248 269.328 758.408 270.136 758.408 271C758.408 271.864 758.248 272.68 757.928 273.448C757.608 274.2 757.16 274.864 756.584 275.44C756.024 276 755.36 276.44 754.592 276.76C753.824 277.08 753 277.24 752.12 277.24ZM752.12 274.792C752.648 274.792 753.128 274.696 753.56 274.504C754.008 274.312 754.392 274.048 754.712 273.712C755.032 273.36 755.28 272.952 755.456 272.488C755.632 272.024 755.72 271.528 755.72 271C755.72 270.472 755.632 269.976 755.456 269.512C755.28 269.048 755.032 268.648 754.712 268.312C754.392 267.96 754.008 267.688 753.56 267.496C753.128 267.304 752.648 267.208 752.12 267.208C751.592 267.208 751.104 267.304 750.656 267.496C750.208 267.688 749.824 267.96 749.504 268.312C749.184 268.648 748.936 269.048 748.76 269.512C748.584 269.976 748.496 270.472 748.496 271C748.496 271.528 748.584 272.024 748.76 272.488C748.936 272.952 749.184 273.36 749.504 273.712C749.824 274.048 750.208 274.312 750.656 274.504C751.104 274.696 751.592 274.792 752.12 274.792ZM766.487 277.24C765.591 277.24 764.759 277.08 763.991 276.76C763.239 276.44 762.575 276 761.999 275.44C761.439 274.864 760.999 274.2 760.679 273.448C760.359 272.68 760.199 271.864 760.199 271C760.199 270.136 760.359 269.328 760.679 268.576C760.999 267.808 761.439 267.144 761.999 266.584C762.575 266.008 763.239 265.56 763.991 265.24C764.759 264.92 765.591 264.76 766.487 264.76C767.367 264.76 768.191 264.92 768.959 265.24C769.727 265.56 770.391 266.008 770.951 266.584C771.527 267.144 771.975 267.808 772.295 268.576C772.615 269.328 772.775 270.136 772.775 271C772.775 271.864 772.615 272.68 772.295 273.448C771.975 274.2 771.527 274.864 770.951 275.44C770.391 276 769.727 276.44 768.959 276.76C768.191 277.08 767.367 277.24 766.487 277.24ZM766.487 274.792C767.015 274.792 767.495 274.696 767.927 274.504C768.375 274.312 768.759 274.048 769.079 273.712C769.399 273.36 769.647 272.952 769.823 272.488C769.999 272.024 770.087 271.528 770.087 271C770.087 270.472 769.999 269.976 769.823 269.512C769.647 269.048 769.399 268.648 769.079 268.312C768.759 267.96 768.375 267.688 767.927 267.496C767.495 267.304 767.015 267.208 766.487 267.208C765.959 267.208 765.471 267.304 765.023 267.496C764.575 267.688 764.191 267.96 763.871 268.312C763.551 268.648 763.303 269.048 763.127 269.512C762.951 269.976 762.863 270.472 762.863 271C762.863 271.528 762.951 272.024 763.127 272.488C763.303 272.952 763.551 273.36 763.871 273.712C764.191 274.048 764.575 274.312 765.023 274.504C765.471 274.696 765.959 274.792 766.487 274.792ZM777.95 273.184C777.95 273.744 778.062 274.144 778.286 274.384C778.526 274.608 778.87 274.72 779.318 274.72C779.43 274.72 779.542 274.72 779.654 274.72C779.782 274.704 779.926 274.68 780.086 274.648V277C779.91 277.048 779.71 277.08 779.486 277.096C779.278 277.112 779.006 277.12 778.67 277.12C778.206 277.12 777.774 277.064 777.374 276.952C776.974 276.824 776.614 276.632 776.294 276.376C775.99 276.12 775.75 275.784 775.574 275.368C775.398 274.952 775.31 274.456 775.31 273.88V259H777.95V273.184ZM783.688 262.384C783.208 262.384 782.792 262.216 782.44 261.88C782.088 261.528 781.912 261.104 781.912 260.608C781.912 260.128 782.088 259.72 782.44 259.384C782.792 259.032 783.208 258.856 783.688 258.856C784.184 258.856 784.6 259.032 784.936 259.384C785.272 259.72 785.44 260.128 785.44 260.608C785.44 261.104 785.272 261.528 784.936 261.88C784.6 262.216 784.184 262.384 783.688 262.384ZM782.368 265H785.008V277H782.368V265ZM788.555 265H791.195V266.632C791.563 266.024 792.067 265.56 792.707 265.24C793.347 264.92 794.059 264.76 794.843 264.76C795.531 264.76 796.155 264.88 796.715 265.12C797.291 265.36 797.779 265.696 798.179 266.128C798.579 266.56 798.883 267.088 799.091 267.712C799.315 268.32 799.427 269.008 799.427 269.776V277H796.787V270.208C796.787 269.248 796.563 268.504 796.115 267.976C795.667 267.432 795.059 267.16 794.291 267.16C793.411 267.16 792.675 267.496 792.083 268.168C791.491 268.824 791.195 269.8 791.195 271.096V277H788.555V265ZM808.229 282.256C807.413 282.256 806.661 282.144 805.973 281.92C805.285 281.712 804.685 281.416 804.173 281.032C803.677 280.648 803.277 280.192 802.973 279.664C802.669 279.136 802.477 278.56 802.397 277.936H804.989C805.229 278.656 805.629 279.176 806.189 279.496C806.749 279.832 807.453 280 808.301 280C808.749 280 809.173 279.92 809.573 279.76C809.973 279.616 810.317 279.392 810.605 279.088C810.909 278.8 811.141 278.432 811.301 277.984C811.477 277.552 811.565 277.048 811.565 276.472V275.056C811.197 275.584 810.669 276.032 809.981 276.4C809.309 276.752 808.557 276.928 807.725 276.928C806.909 276.928 806.149 276.776 805.445 276.472C804.757 276.152 804.149 275.72 803.621 275.176C803.109 274.616 802.701 273.968 802.397 273.232C802.109 272.48 801.965 271.68 801.965 270.832C801.965 269.984 802.109 269.192 802.397 268.456C802.701 267.72 803.109 267.08 803.621 266.536C804.149 265.976 804.757 265.544 805.445 265.24C806.149 264.92 806.909 264.76 807.725 264.76C808.557 264.76 809.309 264.936 809.981 265.288C810.669 265.64 811.197 266.08 811.565 266.608V265H814.205V276.256C814.205 277.296 814.045 278.192 813.725 278.944C813.405 279.712 812.973 280.336 812.429 280.816C811.885 281.312 811.245 281.672 810.509 281.896C809.789 282.136 809.029 282.256 808.229 282.256ZM808.205 274.504C808.717 274.504 809.189 274.416 809.621 274.24C810.053 274.048 810.429 273.792 810.749 273.472C811.069 273.152 811.317 272.768 811.493 272.32C811.685 271.856 811.781 271.36 811.781 270.832C811.781 270.304 811.685 269.816 811.493 269.368C811.317 268.904 811.069 268.512 810.749 268.192C810.429 267.872 810.053 267.624 809.621 267.448C809.189 267.256 808.717 267.16 808.205 267.16C807.693 267.16 807.221 267.256 806.789 267.448C806.357 267.624 805.981 267.872 805.661 268.192C805.341 268.512 805.085 268.904 804.893 269.368C804.717 269.816 804.629 270.304 804.629 270.832C804.629 271.36 804.717 271.856 804.893 272.32C805.085 272.768 805.341 273.152 805.661 273.472C805.981 273.792 806.357 274.048 806.789 274.24C807.221 274.416 807.693 274.504 808.205 274.504Z"
		fill="black" />
	<path
		d="M236.779 52.362C236.811 52.4182 236.843 52.4734 236.859 52.5015C237.665 53.8975 238.136 55.4881 238.162 57.1476L238.526 94.8419C238.543 97.0661 237.378 99.116 235.478 100.214L202.828 119.068C201.43 119.875 199.944 120.399 198.431 120.491L198.767 149.934C201.255 149.726 203.737 148.925 206.042 147.558L259.964 116.419C263.106 114.568 265.03 111.185 264.999 107.516L264.436 45.3269C264.416 42.5824 263.638 39.9416 262.316 37.6524L262.287 37.6679C258.873 39.5657 245.332 47.4223 236.779 52.362Z"
		fill="#073042" />
	<path
		d="M198.42 120.534C196.779 120.663 195.169 120.327 193.645 119.494L162.408 101.861C159.493 100.232 157.691 97.1765 157.65 93.812L157.337 57.9507C157.315 56.3619 157.681 54.7364 158.375 53.2919L132.7 38.965C131.568 41.3317 130.975 43.9832 131.001 46.6114L131.534 105.84C131.588 111.357 134.577 116.407 139.379 119.108L190.916 148.213C193.399 149.609 196.091 150.14 198.768 149.935L198.42 120.534Z"
		fill="#3DDC84" />
	<path
		d="M132.715 38.9933L158.391 53.3202C159.137 51.7721 160.301 50.4304 161.766 49.5469L192.851 31.5968C195.742 29.8899 199.296 29.8483 202.184 31.4942L233.42 49.1265C234.811 49.9237 235.977 51.0378 236.779 52.3621C245.288 47.4108 258.845 39.5823 262.26 37.6845L262.288 37.668C260.922 35.3663 258.986 33.4317 256.59 32.0599L205.026 2.97015C200.223 0.270232 194.357 0.307049 189.609 3.12322L138.314 32.7439C135.843 34.2086 133.95 36.4183 132.715 38.9933Z"
		fill="#4285F4" />
	<path
		d="M198.514 105.587C199.174 105.504 199.813 105.321 200.461 105.022C200.7 104.92 200.924 104.791 201.176 104.646L223.063 92.0065C223.231 91.9096 223.37 91.8292 223.522 91.7043C223.965 91.3739 224.315 90.9477 224.562 90.4711C224.744 90.1417 224.856 89.8171 224.966 89.4926C225.061 89.14 225.112 88.7757 225.09 88.4153L224.859 63.1561C224.85 62.0439 224.526 60.9647 223.994 60.0434C223.962 59.9873 223.913 59.9039 223.882 59.8478C223.354 58.9982 222.602 58.2784 221.676 57.7707L200.733 45.9607C200.612 45.8812 200.48 45.8454 200.36 45.7659C200.107 45.6516 199.855 45.5363 199.59 45.4656C199.221 45.3436 198.797 45.2535 198.388 45.1915C198.112 45.1653 197.836 45.1392 197.576 45.1401C197.388 45.1372 197.215 45.1614 197.044 45.1866C196.871 45.2118 196.655 45.2244 196.456 45.2651C196.383 45.2699 196.328 45.3019 196.255 45.3068C195.628 45.4453 195.02 45.6846 194.434 46.0236L173.608 58.0497C173.216 58.2755 172.885 58.5419 172.57 58.8354C172.351 59.0359 172.176 59.2491 172.001 59.4622C171.921 59.5823 171.841 59.7024 171.762 59.8235C171.654 59.9601 171.591 60.1084 171.499 60.273C171.448 60.3767 171.396 60.4813 171.344 60.5859C171.23 60.8378 171.143 61.0742 171.027 61.327C170.754 62.0807 170.629 62.8974 170.649 63.7053L170.851 87.7537C170.861 88.1577 170.886 88.5897 170.968 88.9889C171.087 89.5168 171.276 90.0399 171.522 90.5301C171.586 90.6425 171.651 90.7539 171.732 90.8934C171.812 91.0329 171.877 91.1453 171.985 91.2683C172.191 91.559 172.44 91.8622 172.701 92.1208C172.761 92.1606 172.794 92.2167 172.854 92.2565C173.208 92.6101 173.629 92.8881 174.078 93.1506L195.021 104.961C195.635 105.313 196.312 105.518 196.996 105.607C197.273 105.633 197.549 105.66 197.81 105.658C197.953 105.649 198.07 105.657 198.214 105.649C198.314 105.628 198.413 105.608 198.514 105.587Z"
		fill="#D7EFFE" />
	<path
		d="M223.882 59.8495C223.914 59.9057 223.963 59.989 223.994 60.0452C224.526 60.9665 224.851 62.0457 224.859 63.1578L225.091 88.4171C225.084 88.793 225.062 89.1418 224.967 89.4944C224.872 89.847 224.733 90.1871 224.562 90.4728C224.3 90.9214 223.949 91.3476 223.523 91.7061C223.371 91.831 223.231 91.9114 223.064 92.0083L201.176 104.648C200.953 104.777 200.701 104.922 200.461 105.024C199.842 105.306 199.174 105.506 198.514 105.589L198.321 112.552L198.421 120.536C199.917 120.417 201.42 119.921 202.818 119.114L235.467 100.26C237.352 99.1345 238.517 97.0846 238.516 94.8875L238.195 57.2058C238.169 55.5454 237.727 53.9401 236.893 52.5597C236.861 52.5035 236.829 52.4483 236.812 52.4202C232.648 54.8256 229.7 56.5645 229.7 56.5645L223.882 59.8495Z"
		fill="#041619" />
	<path
		d="M157.353 57.9779L157.666 93.8393C157.691 97.1757 159.492 100.232 162.424 101.89L193.66 119.522C195.156 120.371 196.794 120.69 198.435 120.562L198.32 112.549L198.513 105.586C198.413 105.607 198.313 105.628 198.212 105.648C198.069 105.657 197.925 105.666 197.808 105.658C197.548 105.659 197.272 105.633 196.996 105.606C196.311 105.518 195.662 105.297 195.02 104.96L174.077 93.1495C173.627 92.888 173.234 92.5935 172.853 92.2554C172.793 92.2157 172.761 92.1605 172.701 92.1207C172.439 91.8621 172.206 91.5869 171.985 91.2682C171.903 91.1278 171.811 91.0328 171.731 90.8933C171.666 90.7809 171.602 90.6695 171.521 90.53C171.275 90.0389 171.101 89.5438 170.967 88.9887C170.885 88.5887 170.831 88.1731 170.85 87.7526L170.647 63.7052C170.628 62.8973 170.769 62.1077 171.026 61.3269C171.113 61.0905 171.228 60.8377 171.344 60.5848C171.395 60.4812 171.446 60.3766 171.499 60.2719L165.719 57.4286L158.319 53.324C157.697 54.7636 157.314 56.3621 157.353 57.9779Z"
		fill="#37BF6E" />
	<path
		d="M171.57 60.2672C171.661 60.1025 171.741 59.9824 171.833 59.8177C171.912 59.6976 171.991 59.5774 172.071 59.4563C172.246 59.2442 172.45 59.0146 172.641 58.8296C172.956 58.536 173.287 58.2706 173.679 58.0449L194.504 46.0187C195.09 45.6797 195.699 45.4404 196.326 45.3009C196.398 45.297 196.454 45.2651 196.526 45.2602C196.726 45.2195 196.898 45.1943 197.114 45.1817C197.286 45.1566 197.474 45.1595 197.647 45.1343C197.906 45.1333 198.183 45.1604 198.459 45.1866C198.868 45.2486 199.248 45.3271 199.661 45.4607C199.926 45.5315 200.177 45.6458 200.43 45.7611C200.551 45.8405 200.683 45.8754 200.803 45.9548L221.746 57.7649C222.645 58.289 223.397 59.0097 223.951 59.8429L229.739 56.5016C229.739 56.5016 232.701 54.7899 236.85 52.3573C236.049 51.033 234.912 49.9025 233.492 49.1207L202.256 31.4894C199.34 29.859 195.785 29.9006 192.922 31.5911L161.838 49.5421C160.345 50.4411 159.209 51.7673 158.463 53.3154L165.863 57.4191L171.57 60.2672Z"
		fill="#3870B2" />
	<path
		d="M29.0607 238.653H46.9019C49.0865 238.653 50.8376 240.14 50.8376 241.962V246.584C50.8376 248.42 49.0691 249.893 46.9019 249.893H29.0607C26.8761 249.893 25.125 248.406 25.125 246.584V241.962C25.125 240.14 26.8934 238.653 29.0607 238.653Z"
		fill="#F86734" />
	<path
		d="M29.0607 159.978H46.9019C49.0865 159.978 50.8376 161.464 50.8376 163.287V167.908C50.8376 169.745 49.0691 171.217 46.9019 171.217H29.0607C26.8761 171.217 25.125 169.73 25.125 167.908V163.287C25.125 161.45 26.8934 159.978 29.0607 159.978Z"
		fill="#F86734" />
	<path
		d="M25.125 249.893H38.7375V216.526C38.7375 213.231 35.6871 210.555 31.9313 210.555H25.125V249.893Z"
		fill="#F86734" />
	<path
		d="M16.1978 199.316C12.7778 199.316 10 201.834 10 204.936C10 208.037 12.7778 210.555 16.1978 210.555H25.125V199.316H16.1978Z"
		fill="#F86734" />
	<path
		d="M38.7375 193.331V159.978H25.125V199.316H31.9313C35.7047 199.3 38.7375 196.641 38.7375 193.331Z"
		fill="#F86734" />
	<path
		d="M111.939 238.653H94.0981C91.9135 238.653 90.1624 240.14 90.1624 241.962V246.584C90.1624 248.42 91.9309 249.893 94.0981 249.893H111.939C114.124 249.893 115.875 248.406 115.875 246.584V241.962C115.875 240.14 114.107 238.653 111.939 238.653Z"
		fill="#F86734" />
	<path
		d="M111.939 159.978H94.0981C91.9135 159.978 90.1624 161.464 90.1624 163.287V167.908C90.1624 169.745 91.9309 171.217 94.0981 171.217H111.939C114.124 171.217 115.875 169.73 115.875 167.908V163.287C115.875 161.45 114.107 159.978 111.939 159.978Z"
		fill="#F86734" />
	<path
		d="M115.875 249.893H102.262V216.526C102.262 213.231 105.313 210.555 109.069 210.555H115.875V249.893Z"
		fill="#F86734" />
	<path
		d="M124.802 199.315C128.222 199.315 131 201.834 131 204.935C131 208.036 128.222 210.555 124.802 210.555H115.875V199.315H124.802Z"
		fill="#F86734" />
	<path
		d="M102.262 193.331V159.978H115.875V199.316H109.069C105.295 199.3 102.262 196.641 102.262 193.331Z"
		fill="#F86734" />
	<path
		d="M39.5726 270.617V282.66C42.7936 282.66 45.7846 283.934 48.0279 286.192C52.687 290.882 52.687 298.525 48.0279 303.273C46.4749 304.837 39.9177 309.874 31.6349 314.622C20.5337 320.991 14.4366 322.265 11.9633 322.497C12.1934 319.717 13.6889 314.043 18.578 304.952C23.6972 295.457 29.5067 287.813 31.0597 286.25C33.303 283.992 36.3515 282.718 39.515 282.718L39.5726 270.617C33.418 270.617 27.3209 272.99 22.6619 277.681C16.4498 283.876 -8.34101 320.297 2.87525 331.587C4.88843 333.614 7.76439 334.483 11.1005 334.483C26.2281 334.483 51.4215 316.822 56.4832 311.727C65.8013 302.347 65.8013 287.061 56.4832 277.681C51.8242 272.933 45.6696 270.617 39.5726 270.617Z"
		fill="#073042" />
	<path
		d="M143.626 365.4C138.967 360.71 132.812 358.336 126.715 358.336V370.379C129.936 370.379 132.927 371.653 135.171 373.911C137.414 376.17 138.679 379.238 138.679 382.423C138.679 385.666 137.414 388.677 135.171 390.935C133.618 392.498 127.06 397.536 118.778 402.284C107.676 408.653 101.579 409.927 99.106 410.158C99.336 407.379 100.832 401.704 105.721 392.614C110.84 383.118 116.649 375.475 118.202 373.911C120.446 371.653 123.494 370.379 126.658 370.379V358.336C120.503 358.336 114.406 360.71 109.747 365.4C103.535 371.653 78.7441 408.016 90.0179 419.365C92.0311 421.391 94.907 422.26 98.2432 422.26C113.371 422.26 138.564 404.6 143.626 399.504C153.002 390.066 153.002 374.78 143.626 365.4Z"
		fill="#073042" />
	<path
		d="M221.391 240.279C219.378 238.252 219.378 234.952 221.391 232.983C223.404 230.957 226.683 230.957 228.638 232.983C230.651 235.01 230.651 238.31 228.638 240.279C226.683 242.305 223.404 242.305 221.391 240.279ZM181.242 199.863C179.229 197.837 179.229 194.536 181.242 192.568C183.256 190.541 186.534 190.541 188.49 192.568C190.503 194.594 190.503 197.895 188.49 199.863C186.477 201.89 183.256 201.89 181.242 199.863ZM166.057 343.403L232.492 276.526C246.182 260.255 250.266 238.947 244.571 219.55L264.415 214.223C265.566 213.933 266.256 212.718 265.911 211.559C265.623 210.401 264.415 209.707 263.265 210.054L243.191 215.497C240.142 207.275 235.253 199.458 228.523 192.683C221.794 185.909 214.028 180.987 205.861 177.918L211.267 157.711C211.555 156.552 210.922 155.394 209.772 155.047C208.622 154.758 207.471 155.394 207.126 156.552L201.834 176.529C182.565 170.796 161.398 174.907 145.235 188.688L78.8006 255.565L166.057 343.403Z"
		fill="#3DDC84" />
	<path
		d="M100.14 277.044L150.239 226.611C159.385 217.405 159.385 202.35 150.239 193.144C141.094 183.938 126.139 183.938 116.993 193.144L103.706 206.519L66.894 243.577"
		fill="#00B975" />
	<path
		d="M177.273 354.69L227.373 304.257C236.518 295.051 236.518 279.996 227.373 270.79C218.227 261.584 203.272 261.584 194.126 270.79L180.839 284.165L144.027 321.223"
		fill="#00B975" />
	<path
		d="M145.35 221.693C154.496 212.487 154.496 197.432 145.35 188.226C136.205 179.02 121.25 179.02 112.104 188.226L98.8171 201.601L60.5668 240.106L53.607 247.112C51.9964 248.734 51.9964 251.455 53.607 253.076L80.8711 280.522C82.4816 282.143 85.185 282.143 86.8531 280.522L93.8129 273.516L145.35 221.693Z"
		fill="#4285F4" />
	<path
		d="M232.493 309.418C241.638 300.211 241.638 285.157 232.493 275.95C223.347 266.744 208.392 266.744 199.247 275.95L185.96 289.326L147.71 327.831L140.75 334.837C139.139 336.458 139.139 339.179 140.75 340.801L168.014 368.246C169.624 369.868 172.328 369.868 173.996 368.246L180.956 361.24L232.493 309.418Z"
		fill="#4285F4" />
	<path
		d="M98.9824 73.3123C97.8596 78.0731 94.5714 82.0156 90.2406 84.3216C89.9198 84.4703 89.9198 84.9167 90.2406 85.0654C94.6516 87.3714 97.8596 91.3139 98.9824 96.0747C99.0626 96.521 99.7844 96.521 99.8646 96.0747C100.987 91.3139 104.276 87.3714 108.606 85.0654C108.927 84.9167 108.927 84.4703 108.606 84.3216C104.195 82.0156 100.987 78.0731 99.8646 73.3123C99.7844 72.866 99.1428 72.866 98.9824 73.3123Z"
		fill="#F6DA00" />
	<path
		d="M53.7846 83.8846C51.2984 91.3977 44.8822 97.4231 36.782 99.6547C35.7393 99.9523 35.7393 101.366 36.782 101.663C44.8822 103.969 51.3786 109.92 53.7846 117.433C54.1054 118.4 55.6294 118.4 55.9502 117.433C58.4364 109.92 64.8522 103.895 72.9524 101.663C73.995 101.366 73.995 99.9523 72.9524 99.6547C64.8522 97.3487 58.3562 91.3977 55.9502 83.8846C55.6294 82.9176 54.1054 82.9176 53.7846 83.8846Z"
		fill="#F6DA00" />
	<path
		d="M88.6718 109.028C87.549 113.789 84.2609 117.731 79.9301 120.037C79.6093 120.186 79.6093 120.632 79.9301 120.781C84.3411 123.087 87.549 127.03 88.6718 131.79C88.752 132.237 89.4739 132.237 89.5541 131.79C90.6769 127.03 93.965 123.087 98.2959 120.781C98.6167 120.632 98.6167 120.186 98.2959 120.037C93.8848 117.731 90.6769 113.789 89.5541 109.028C89.4739 108.582 88.8322 108.582 88.6718 109.028Z"
		fill="#F6DA00" />
	<ellipse cx="515.776" cy="132" fill="#F6DA00" rx="7.77633" ry="7.77633" />
	<line stroke="#F6DA00" stroke-linecap="square" stroke-width="2" x1="298" x2="516" y1="132.224"
		y2="132.224" />
	<ellipse cx="424.776" cy="64" fill="#F6DA00" rx="7.77633" ry="7.77633" />
	<line stroke="#F6DA00" stroke-linecap="square" stroke-width="2" x1="316" x2="416" y1="64.2237"
		y2="64.2237" />
	<ellipse cx="597.776" cy="200" fill="#F6DA00" rx="7.77633" ry="7.77633" />
	<line stroke="#F6DA00" stroke-linecap="square" stroke-width="2" x1="313" x2="597" y1="200.224"
		y2="200.224" />
	<ellipse cx="694.086" cy="268" fill="#F6DA00" rx="7.46641" ry="7.77633" />
	<line stroke="#F6DA00" stroke-linecap="square" stroke-width="2" x1="293" x2="693.301" y1="268.224"
		y2="268.224" />
	<ellipse cx="678.776" cy="336" fill="#F6DA00" rx="7.77633" ry="7.77633" />
	<line stroke="#F6DA00" stroke-linecap="square" stroke-width="2" x1="261" x2="678" y1="336.224"
		y2="336.224" />
	<path
		d="M731.969 333.528C731.969 334.312 731.825 335.048 731.537 335.736C731.249 336.408 730.841 336.992 730.313 337.488C729.801 337.984 729.185 338.376 728.465 338.664C727.745 338.952 726.945 339.096 726.065 339.096H723.449V345H720.641V327.96H726.065C726.945 327.96 727.745 328.104 728.465 328.392C729.185 328.68 729.801 329.072 730.313 329.568C730.841 330.064 731.249 330.656 731.537 331.344C731.825 332.016 731.969 332.744 731.969 333.528ZM729.209 333.528C729.209 332.696 728.929 332 728.369 331.44C727.825 330.88 727.049 330.6 726.041 330.6H723.449V336.456H726.041C727.049 336.456 727.825 336.176 728.369 335.616C728.929 335.056 729.209 334.36 729.209 333.528ZM736.958 341.184C736.958 341.744 737.07 342.144 737.294 342.384C737.534 342.608 737.878 342.72 738.326 342.72C738.438 342.72 738.55 342.72 738.662 342.72C738.79 342.704 738.934 342.68 739.094 342.648V345C738.918 345.048 738.718 345.08 738.494 345.096C738.286 345.112 738.014 345.12 737.678 345.12C737.214 345.12 736.782 345.064 736.382 344.952C735.982 344.824 735.622 344.632 735.302 344.376C734.998 344.12 734.758 343.784 734.582 343.368C734.406 342.952 734.318 342.456 734.318 341.88V327H736.958V341.184ZM744.831 345.24C744.143 345.24 743.527 345.144 742.983 344.952C742.455 344.744 742.007 344.48 741.639 344.16C741.287 343.824 741.015 343.448 740.823 343.032C740.647 342.6 740.559 342.152 740.559 341.688C740.559 341.096 740.679 340.584 740.919 340.152C741.159 339.72 741.503 339.352 741.951 339.048C742.415 338.744 742.975 338.496 743.631 338.304C744.287 338.096 745.039 337.92 745.887 337.776C746.751 337.616 747.399 337.464 747.831 337.32C748.263 337.16 748.479 336.872 748.479 336.456C748.479 335.992 748.263 335.624 747.831 335.352C747.415 335.064 746.879 334.92 746.223 334.92C745.455 334.92 744.823 335.12 744.327 335.52C743.847 335.904 743.567 336.4 743.487 337.008H740.943C740.959 336.496 741.087 335.984 741.327 335.472C741.583 334.96 741.935 334.504 742.383 334.104C742.847 333.704 743.399 333.384 744.039 333.144C744.695 332.888 745.439 332.76 746.271 332.76C746.911 332.76 747.527 332.84 748.119 333C748.711 333.16 749.231 333.416 749.679 333.768C750.143 334.12 750.503 334.576 750.759 335.136C751.031 335.68 751.167 336.344 751.167 337.128V345H748.527V343.464C748.143 344.008 747.631 344.44 746.991 344.76C746.367 345.08 745.647 345.24 744.831 345.24ZM745.335 343.104C745.767 343.104 746.175 343.032 746.559 342.888C746.943 342.728 747.279 342.512 747.567 342.24C747.855 341.968 748.087 341.656 748.263 341.304C748.439 340.936 748.527 340.536 748.527 340.104V338.808C748.335 338.904 748.095 339 747.807 339.096C747.535 339.176 747.247 339.256 746.943 339.336C746.655 339.416 746.367 339.488 746.079 339.552C745.807 339.616 745.567 339.68 745.359 339.744C744.591 339.968 744.055 340.224 743.751 340.512C743.447 340.784 743.295 341.136 743.295 341.568C743.295 342.064 743.479 342.448 743.847 342.72C744.231 342.976 744.727 343.104 745.335 343.104ZM759.662 345.12C759.086 345.12 758.55 345.04 758.054 344.88C757.558 344.72 757.118 344.48 756.734 344.16C756.366 343.824 756.078 343.408 755.87 342.912C755.662 342.4 755.558 341.808 755.558 341.136V335.352H753.062V333H755.558V329.664H758.198V333H761.63V335.352H758.198V340.704C758.198 341.456 758.358 341.984 758.678 342.288C759.014 342.592 759.526 342.744 760.214 342.744C760.47 342.744 760.718 342.728 760.958 342.696C761.214 342.648 761.438 342.584 761.63 342.504V344.856C761.358 344.936 761.062 345 760.742 345.048C760.438 345.096 760.078 345.12 759.662 345.12ZM765.261 335.352H762.765V333H765.261V330.984C765.261 330.312 765.365 329.72 765.573 329.208C765.781 328.696 766.069 328.264 766.437 327.912C766.821 327.56 767.261 327.296 767.757 327.12C768.253 326.944 768.789 326.856 769.365 326.856C769.781 326.856 770.149 326.888 770.469 326.952C770.789 327 771.077 327.064 771.333 327.144V329.496C771.141 329.416 770.917 329.36 770.661 329.328C770.421 329.28 770.173 329.256 769.917 329.256C769.229 329.256 768.717 329.408 768.381 329.712C768.061 330.016 767.901 330.544 767.901 331.296V333H771.333V335.352H767.901V345H765.261V335.352ZM778.628 345.24C777.732 345.24 776.9 345.08 776.132 344.76C775.38 344.44 774.716 344 774.14 343.44C773.58 342.864 773.14 342.2 772.82 341.448C772.5 340.68 772.34 339.864 772.34 339C772.34 338.136 772.5 337.328 772.82 336.576C773.14 335.808 773.58 335.144 774.14 334.584C774.716 334.008 775.38 333.56 776.132 333.24C776.9 332.92 777.732 332.76 778.628 332.76C779.508 332.76 780.332 332.92 781.1 333.24C781.868 333.56 782.532 334.008 783.092 334.584C783.668 335.144 784.116 335.808 784.436 336.576C784.756 337.328 784.916 338.136 784.916 339C784.916 339.864 784.756 340.68 784.436 341.448C784.116 342.2 783.668 342.864 783.092 343.44C782.532 344 781.868 344.44 781.1 344.76C780.332 345.08 779.508 345.24 778.628 345.24ZM778.628 342.792C779.156 342.792 779.636 342.696 780.068 342.504C780.516 342.312 780.9 342.048 781.22 341.712C781.54 341.36 781.788 340.952 781.964 340.488C782.14 340.024 782.228 339.528 782.228 339C782.228 338.472 782.14 337.976 781.964 337.512C781.788 337.048 781.54 336.648 781.22 336.312C780.9 335.96 780.516 335.688 780.068 335.496C779.636 335.304 779.156 335.208 778.628 335.208C778.1 335.208 777.612 335.304 777.164 335.496C776.716 335.688 776.332 335.96 776.012 336.312C775.692 336.648 775.444 337.048 775.268 337.512C775.092 337.976 775.004 338.472 775.004 339C775.004 339.528 775.092 340.024 775.268 340.488C775.444 340.952 775.692 341.36 776.012 341.712C776.332 342.048 776.716 342.312 777.164 342.504C777.612 342.696 778.1 342.792 778.628 342.792ZM787.571 333H790.211V335.136C790.323 334.8 790.483 334.496 790.691 334.224C790.915 333.936 791.163 333.696 791.435 333.504C791.723 333.296 792.035 333.144 792.371 333.048C792.707 332.936 793.043 332.88 793.379 332.88C793.747 332.88 794.091 332.912 794.411 332.976V335.688C794.187 335.608 793.971 335.552 793.763 335.52C793.555 335.488 793.331 335.472 793.091 335.472C792.707 335.472 792.339 335.552 791.987 335.712C791.651 335.872 791.347 336.104 791.075 336.408C790.819 336.712 790.611 337.096 790.451 337.56C790.291 338.024 790.211 338.552 790.211 339.144V345H787.571V333ZM811.976 338.256C811.976 337.312 811.8 336.56 811.448 336C811.096 335.44 810.56 335.16 809.84 335.16C809.008 335.16 808.328 335.488 807.8 336.144C807.288 336.784 807.016 337.704 806.984 338.904V345H804.344V338.256C804.344 337.312 804.168 336.56 803.816 336C803.464 335.44 802.928 335.16 802.208 335.16C801.344 335.16 800.648 335.504 800.12 336.192C799.592 336.864 799.328 337.832 799.328 339.096V345H796.688V333H799.328V334.632C799.664 334.072 800.12 333.624 800.696 333.288C801.288 332.936 801.968 332.76 802.736 332.76C803.632 332.76 804.392 332.968 805.016 333.384C805.656 333.8 806.136 334.384 806.456 335.136C806.808 334.368 807.336 333.784 808.04 333.384C808.744 332.968 809.496 332.76 810.296 332.76C811.656 332.76 812.712 333.224 813.464 334.152C814.232 335.064 814.616 336.288 814.616 337.824V345H811.976V338.256ZM827.865 345.24C827.161 345.24 826.505 345.152 825.897 344.976C825.289 344.8 824.753 344.544 824.289 344.208C823.841 343.872 823.473 343.464 823.185 342.984C822.913 342.504 822.761 341.96 822.729 341.352H825.465C825.577 342.008 825.865 342.472 826.329 342.744C826.809 343 827.345 343.128 827.937 343.128C828.513 343.128 828.977 343.024 829.329 342.816C829.697 342.592 829.881 342.272 829.881 341.856C829.881 341.44 829.737 341.112 829.449 340.872C829.177 340.632 828.729 340.432 828.105 340.272L826.137 339.744C825.097 339.472 824.321 339.024 823.809 338.4C823.313 337.76 823.065 337 823.065 336.12C823.065 335.624 823.169 335.168 823.377 334.752C823.601 334.336 823.905 333.984 824.289 333.696C824.673 333.392 825.137 333.16 825.681 333C826.241 332.84 826.857 332.76 827.529 332.76C828.169 332.76 828.761 332.848 829.305 333.024C829.849 333.2 830.321 333.448 830.721 333.768C831.121 334.072 831.441 334.448 831.681 334.896C831.921 335.328 832.065 335.816 832.113 336.36H829.473C829.345 335.848 829.097 335.472 828.729 335.232C828.377 334.992 827.969 334.872 827.505 334.872C826.993 334.872 826.569 334.984 826.233 335.208C825.913 335.416 825.753 335.712 825.753 336.096C825.753 336.48 825.889 336.784 826.161 337.008C826.449 337.232 826.849 337.408 827.361 337.536L829.377 338.064C830.465 338.336 831.265 338.784 831.777 339.408C832.305 340.016 832.569 340.776 832.569 341.688C832.569 342.264 832.449 342.776 832.209 343.224C831.969 343.672 831.641 344.048 831.225 344.352C830.809 344.64 830.313 344.856 829.737 345C829.161 345.16 828.537 345.24 827.865 345.24ZM839.539 345.24C838.851 345.24 838.227 345.12 837.667 344.88C837.123 344.64 836.659 344.304 836.275 343.872C835.891 343.424 835.595 342.888 835.387 342.264C835.179 341.64 835.075 340.944 835.075 340.176V333H837.715V339.744C837.715 340.704 837.923 341.464 838.339 342.024C838.755 342.568 839.347 342.84 840.115 342.84C840.979 342.84 841.683 342.512 842.227 341.856C842.771 341.184 843.043 340.2 843.043 338.904V333H845.683V345H843.043V343.368C842.691 343.976 842.211 344.44 841.603 344.76C840.995 345.08 840.307 345.24 839.539 345.24ZM849.235 350.016V333H851.875V334.608C852.211 334.128 852.723 333.704 853.411 333.336C854.099 332.952 854.875 332.76 855.739 332.76C856.555 332.76 857.315 332.928 858.019 333.264C858.739 333.584 859.355 334.032 859.867 334.608C860.379 335.168 860.779 335.824 861.067 336.576C861.371 337.328 861.523 338.136 861.523 339C861.523 339.864 861.371 340.672 861.067 341.424C860.779 342.176 860.379 342.84 859.867 343.416C859.355 343.976 858.739 344.424 858.019 344.76C857.315 345.08 856.555 345.24 855.739 345.24C854.875 345.24 854.099 345.056 853.411 344.688C852.723 344.304 852.211 343.872 851.875 343.392V350.016H849.235ZM855.259 342.84C855.787 342.84 856.267 342.744 856.699 342.552C857.147 342.344 857.523 342.072 857.827 341.736C858.147 341.384 858.395 340.976 858.571 340.512C858.747 340.048 858.835 339.544 858.835 339C858.835 338.456 858.747 337.952 858.571 337.488C858.395 337.024 858.147 336.624 857.827 336.288C857.523 335.936 857.147 335.664 856.699 335.472C856.267 335.264 855.787 335.16 855.259 335.16C854.731 335.16 854.243 335.264 853.795 335.472C853.347 335.664 852.963 335.936 852.643 336.288C852.339 336.624 852.099 337.024 851.923 337.488C851.747 337.952 851.659 338.456 851.659 339C851.659 339.544 851.747 340.048 851.923 340.512C852.099 340.976 852.339 341.384 852.643 341.736C852.963 342.072 853.347 342.344 853.795 342.552C854.243 342.744 854.731 342.84 855.259 342.84ZM864.211 350.016V333H866.851V334.608C867.187 334.128 867.699 333.704 868.387 333.336C869.075 332.952 869.851 332.76 870.715 332.76C871.531 332.76 872.291 332.928 872.995 333.264C873.715 333.584 874.331 334.032 874.843 334.608C875.355 335.168 875.755 335.824 876.043 336.576C876.347 337.328 876.499 338.136 876.499 339C876.499 339.864 876.347 340.672 876.043 341.424C875.755 342.176 875.355 342.84 874.843 343.416C874.331 343.976 873.715 344.424 872.995 344.76C872.291 345.08 871.531 345.24 870.715 345.24C869.851 345.24 869.075 345.056 868.387 344.688C867.699 344.304 867.187 343.872 866.851 343.392V350.016H864.211ZM870.235 342.84C870.763 342.84 871.243 342.744 871.675 342.552C872.123 342.344 872.499 342.072 872.803 341.736C873.123 341.384 873.371 340.976 873.547 340.512C873.723 340.048 873.811 339.544 873.811 339C873.811 338.456 873.723 337.952 873.547 337.488C873.371 337.024 873.123 336.624 872.803 336.288C872.499 335.936 872.123 335.664 871.675 335.472C871.243 335.264 870.763 335.16 870.235 335.16C869.707 335.16 869.219 335.264 868.771 335.472C868.323 335.664 867.939 335.936 867.619 336.288C867.315 336.624 867.075 337.024 866.899 337.488C866.723 337.952 866.635 338.456 866.635 339C866.635 339.544 866.723 340.048 866.899 340.512C867.075 340.976 867.315 341.384 867.619 341.736C867.939 342.072 868.323 342.344 868.771 342.552C869.219 342.744 869.707 342.84 870.235 342.84ZM884.612 345.24C883.716 345.24 882.884 345.08 882.116 344.76C881.364 344.44 880.7 344 880.124 343.44C879.564 342.864 879.124 342.2 878.804 341.448C878.484 340.68 878.324 339.864 878.324 339C878.324 338.136 878.484 337.328 878.804 336.576C879.124 335.808 879.564 335.144 880.124 334.584C880.7 334.008 881.364 333.56 882.116 333.24C882.884 332.92 883.716 332.76 884.612 332.76C885.492 332.76 886.316 332.92 887.084 333.24C887.852 333.56 888.516 334.008 889.076 334.584C889.652 335.144 890.1 335.808 890.42 336.576C890.74 337.328 890.9 338.136 890.9 339C890.9 339.864 890.74 340.68 890.42 341.448C890.1 342.2 889.652 342.864 889.076 343.44C888.516 344 887.852 344.44 887.084 344.76C886.316 345.08 885.492 345.24 884.612 345.24ZM884.612 342.792C885.14 342.792 885.62 342.696 886.052 342.504C886.5 342.312 886.884 342.048 887.204 341.712C887.524 341.36 887.772 340.952 887.948 340.488C888.124 340.024 888.212 339.528 888.212 339C888.212 338.472 888.124 337.976 887.948 337.512C887.772 337.048 887.524 336.648 887.204 336.312C886.884 335.96 886.5 335.688 886.052 335.496C885.62 335.304 885.14 335.208 884.612 335.208C884.084 335.208 883.596 335.304 883.148 335.496C882.7 335.688 882.316 335.96 881.996 336.312C881.676 336.648 881.428 337.048 881.252 337.512C881.076 337.976 880.988 338.472 880.988 339C880.988 339.528 881.076 340.024 881.252 340.488C881.428 340.952 881.676 341.36 881.996 341.712C882.316 342.048 882.7 342.312 883.148 342.504C883.596 342.696 884.084 342.792 884.612 342.792ZM893.555 333H896.195V335.136C896.307 334.8 896.467 334.496 896.675 334.224C896.899 333.936 897.147 333.696 897.419 333.504C897.707 333.296 898.019 333.144 898.355 333.048C898.691 332.936 899.027 332.88 899.363 332.88C899.731 332.88 900.075 332.912 900.395 332.976V335.688C900.171 335.608 899.955 335.552 899.747 335.52C899.539 335.488 899.315 335.472 899.075 335.472C898.691 335.472 898.323 335.552 897.971 335.712C897.635 335.872 897.331 336.104 897.059 336.408C896.803 336.712 896.595 337.096 896.435 337.56C896.275 338.024 896.195 338.552 896.195 339.144V345H893.555V333ZM907.88 345.12C907.304 345.12 906.768 345.04 906.272 344.88C905.776 344.72 905.336 344.48 904.952 344.16C904.584 343.824 904.296 343.408 904.088 342.912C903.88 342.4 903.776 341.808 903.776 341.136V335.352H901.28V333H903.776V329.664H906.416V333H909.848V335.352H906.416V340.704C906.416 341.456 906.576 341.984 906.896 342.288C907.232 342.592 907.744 342.744 908.432 342.744C908.688 342.744 908.936 342.728 909.176 342.696C909.432 342.648 909.656 342.584 909.848 342.504V344.856C909.576 344.936 909.28 345 908.96 345.048C908.656 345.096 908.296 345.12 907.88 345.12Z"
		fill="black" />
</svg>


