<?xml version="1.0" standalone="no"?><!DOCTYPE svg PUBLIC "-//W3C//DTD SVG 1.1//EN"
	"http://www.w3.org/Graphics/SVG/1.1/DTD/svg11.dtd">
<svg class="icon" height="32" p-id="1366" t="1583296483570" version="1.1" viewBox="0 0 1024 1024"
	width="32" xmlns="http://www.w3.org/2000/svg">
	<defs>
		<style type="text/css"></style>
	</defs>
	<path
		d="M499.8 594.3c-0.2-0.5-9.6-31.9-9.6-44.5 0-0.6 0 0.6 0 0-0.2-1.8-0.4-3.9-0.4-6.3 0-71.3 55.9-129.3 124.7-129.3 33.9 0 65.1 6.9 88.4 31.9 17.2-18.5 39.8-27.1 64.3-30.3-6.3-100.1-86.9-188.5-184.9-188.5-50.4 0-98.2 21.8-132.6 58.9-34.5-37.1-82.3-58.9-132.6-58.9-102.2 0-185.3 86.2-185.3 192.3 0 3.6 0.3 6.7 0.6 9.3 0 0.9-0.1 1.7-0.1 2.6 0 18.8 4.5 39.4 13.5 61.3 0.3 0.8 0.6 1.6 0.9 2.3 56.5 135.4 273.8 291.2 283 298.4 5.7 4.4 12.6 6.6 19.4 6.6 7 0 13.8-2.3 19.6-6.8 4.1-3.2 49.1-33.3 108.6-86.5-35.2-35.7-62-75.3-77.5-112.5z"
		fill="#F3856F" p-id="1367"></path>
	<path
		d="M888.5 554.3c0-60.7-47.6-110.1-106.1-110.1-28.9 0-56.2 12.5-76 33.7-19.8-21.3-47.1-33.7-76-33.7-58.5 0-106.1 49.4-106.1 110.1 0 2 0.2 3.9 0.4 5.3 0 0.5-0.1 1-0.1 1.5 0 10.7 2.6 22.6 7.7 35.1 0.2 0.5 0.3 0.9 0.5 1.3 32.3 77.6 156.8 166.8 162.1 170.9 3.3 2.5 7.2 3.8 11.1 3.8 4 0 7.9-1.3 11.2-3.9 4.5-3.5 110.7-79.9 152.8-152.2 1.6-2.4 2.8-4.8 3.9-6.8 0.3-0.6 0.6-1.3 1-1.9l0.1-0.3c0.1-0.2 0.3-0.5 0.5-0.7 2.5-4.9 4.5-9.5 6.1-13.9 4.4-11.5 6.5-21.7 6.5-31.2 0-0.7 0-1.4-0.1-1.9 0.3-1.4 0.5-3.1 0.5-5.1z m0 0"
		fill="#FDC8C8" p-id="1368"></path>
</svg>