<svg viewBox="0 0 473.65 307" xmlns="http://www.w3.org/2000/svg">
	<g fill="#d7effe">
		<circle cx="179.27" cy="167.81" r="69.15" />
		<circle cx="110.12" cy="196.97" r="39.98" />
		<circle cx="259.99" cy="202.34" r="34.61" />
		<path d="m259.99 236.95h-149.71v-40.38h129z" />
	</g>
	<path
		d="m178 129.12v7.58a7.57 7.57 0 0 1 5.36 12.92 64.26 64.26 0 0 1 -10.36 7.13c-7 4-10.87 4.79-12.44 4.93.16-1.72 1.07-5.29 4.17-11a67.14 67.14 0 0 1 7.9-11.74 7.54 7.54 0 0 1 5.37-2.24v-7.58a15 15 0 0 0 -10.7 4.42c-3.93 3.93-19.59 26.77-12.44 33.87a7 7 0 0 0 5.18 1.82c9.56 0 25.48-11.09 28.69-14.3a15.12 15.12 0 0 0 -10.73-25.81z"
		fill="#083041" />
	<path
		d="m243.79 188.63a15 15 0 0 0 -10.71-4.43v7.56a7.57 7.57 0 0 1 5.35 12.92 64.68 64.68 0 0 1 -10.35 7.13c-7 4-10.87 4.78-12.44 4.93.16-1.73 1.07-5.3 4.18-11a67.14 67.14 0 0 1 7.89-11.74 7.53 7.53 0 0 1 5.36-2.21v-7.59a15 15 0 0 0 -10.69 4.43c-3.93 3.93-19.59 26.76-12.48 33.87a7 7 0 0 0 5.19 1.82c9.55 0 25.48-11.09 28.68-14.3a15.14 15.14 0 0 0 .02-21.39z"
		fill="#083041" />
	<path
		d="m292.93 110.09a3.28 3.28 0 1 1 4.63 0 3.28 3.28 0 0 1 -4.59 0m-25.43-25.39a3.27 3.27 0 1 1 4.63 0h-.05a3.27 3.27 0 0 1 -4.58 0m-9.54 90.12 42-42a38.36 38.36 0 0 0 7.63-35.77l12.57-3.36a1.35 1.35 0 0 0 1-1.65 1.36 1.36 0 0 0 -1.66-1l-12.7 3.41a40.86 40.86 0 0 0 -23.62-23.62l3.41-12.69a1.36 1.36 0 0 0 -1-1.66 1.34 1.34 0 0 0 -1.66 1l-3.4 12.52a38.37 38.37 0 0 0 -35.76 7.64l-42 42z"
		fill="#3ddc84" />
	<path d="m216.29 133.16 31.71-31.67a14.85 14.85 0 0 0 -21-21l-8.42 8.42-23.28 23.25"
		fill="#37bf6e" />
	<path d="m265.06 181.92 31.66-31.67a14.85 14.85 0 0 0 -21-21l-8.41 8.41-23.27 23.27"
		fill="#37bf6e" />
	<path
		d="m244.87 98.41a14.85 14.85 0 0 0 -21-21l-8.41 8.4-24.14 24.19-4.39 4.39a2.66 2.66 0 0 0 0 3.76l17.21 17.24a2.67 2.67 0 0 0 3.76 0l4.39-4.39z"
		fill="#4285f4" />
	<path
		d="m300 153.47a14.85 14.85 0 0 0 -21-21l-8.41 8.41-24.19 24.19-4.4 4.39a2.66 2.66 0 0 0 0 3.76l17.24 17.23a2.64 2.64 0 0 0 3.75 0l4.4-4.38z"
		fill="#4285f4" />
	<circle cx="343.11" cy="174.82" fill="#f1d949" r="4.78" />
	<circle cx="30.04" cy="271.07" fill="#f1d949" r="4.78" />
	<circle cx="413.85" cy="95.55" fill="#f1d949" r="4.78" />
	<circle cx="359.68" cy="37.48" fill="#f1d949" r="4.78" />
	<path d="m462.9 196.31a59.35 59.35 0 0 0 -82.64 45h-.73a34.31 34.31 0 0 0 -28.7 53.09"
		fill="none" stroke="#1769e0" stroke-linecap="round" stroke-linejoin="round"
		stroke-width="8" />
	<path d="m22 15.37a50.51 50.51 0 0 0 48.14 35.17 50.5 50.5 0 0 0 48.27-35.68" fill="none"
		stroke="#1769e0" stroke-linecap="round" stroke-linejoin="round" stroke-width="8" />
</svg>